<svg width="193" height="63" viewBox="0 0 193 63" fill="none" xmlns="http://www.w3.org/2000/svg">
<g filter="url(#filter0_d_1_268)">
<rect x="4.93707" y="4.43719" width="183.132" height="54" rx="12" fill="white"/>
</g>
<path d="M42.5097 28.4372C42.5097 35.4372 33.5097 41.4372 33.5097 41.4372C33.5097 41.4372 24.5097 35.4372 24.5097 28.4372C24.5097 26.0502 25.4579 23.7611 27.1457 22.0732C28.8336 20.3854 31.1228 19.4372 33.5097 19.4372C35.8967 19.4372 38.1858 20.3854 39.8737 22.0732C41.5615 23.7611 42.5097 26.0502 42.5097 28.4372Z" stroke="#747474" stroke-width="2" stroke-linecap="round" stroke-linejoin="round"/>
<path d="M33.5097 31.4372C35.1666 31.4372 36.5097 30.094 36.5097 28.4372C36.5097 26.7803 35.1666 25.4372 33.5097 25.4372C31.8529 25.4372 30.5097 26.7803 30.5097 28.4372C30.5097 30.094 31.8529 31.4372 33.5097 31.4372Z" stroke="#747474" stroke-width="2" stroke-linecap="round" stroke-linejoin="round"/>
<path d="M71.9786 33.7196H68.4587L67.8539 35.4372H66.4145L69.4264 27.0184H71.0231L74.035 35.4372H72.5834L71.9786 33.7196ZM71.5916 32.5947L70.2247 28.6877L68.8458 32.5947H71.5916ZM78.7072 28.6635C79.2313 28.6635 79.6991 28.7723 80.1103 28.9901C80.5296 29.2078 80.8562 29.5304 81.0901 29.9577C81.3239 30.3851 81.4409 30.9012 81.4409 31.506V35.4372H80.074V31.7117C80.074 31.1149 79.9248 30.6593 79.6265 30.3448C79.3281 30.0223 78.9209 29.861 78.4048 29.861C77.8887 29.861 77.4774 30.0223 77.171 30.3448C76.8726 30.6593 76.7235 31.1149 76.7235 31.7117V35.4372H75.3445V28.7723H76.7235V29.5344C76.9492 29.2602 77.2355 29.0465 77.5823 28.8933C77.9371 28.7401 78.3121 28.6635 78.7072 28.6635ZM89.1994 28.7723L85.1109 38.57H83.6836L85.0384 35.3283L82.4135 28.7723H83.9497L85.8246 33.8526L87.772 28.7723H89.1994ZM99.191 28.7723L97.1226 35.4372H95.671L94.3284 30.5142L92.9858 35.4372H91.5342L89.4537 28.7723H90.8569L92.2479 34.1308L93.6631 28.7723H95.1025L96.4573 34.1066L97.8362 28.7723H99.191ZM103.669 28.6635C104.177 28.6635 104.628 28.7723 105.024 28.9901C105.427 29.2078 105.741 29.5304 105.967 29.9577C106.201 30.3851 106.318 30.9012 106.318 31.506V35.4372H104.951V31.7117C104.951 31.1149 104.802 30.6593 104.503 30.3448C104.205 30.0223 103.798 29.861 103.282 29.861C102.766 29.861 102.354 30.0223 102.048 30.3448C101.75 30.6593 101.6 31.1149 101.6 31.7117V35.4372H100.221V26.4862H101.6V29.5465C101.834 29.2642 102.129 29.0465 102.483 28.8933C102.846 28.7401 103.241 28.6635 103.669 28.6635ZM114.185 31.9415C114.185 32.1915 114.169 32.4172 114.137 32.6188H109.044C109.085 33.1511 109.282 33.5785 109.637 33.901C109.992 34.2236 110.427 34.3849 110.943 34.3849C111.685 34.3849 112.209 34.0744 112.516 33.4535H114.004C113.802 34.0663 113.435 34.5703 112.903 34.9655C112.379 35.3525 111.726 35.5461 110.943 35.5461C110.306 35.5461 109.734 35.4049 109.226 35.1227C108.726 34.8324 108.331 34.4292 108.04 33.9131C107.758 33.389 107.617 32.7842 107.617 32.0987C107.617 31.4133 107.754 30.8125 108.028 30.2964C108.311 29.7723 108.702 29.3691 109.202 29.0868C109.71 28.8046 110.29 28.6635 110.943 28.6635C111.572 28.6635 112.133 28.8006 112.625 29.0747C113.117 29.3489 113.5 29.736 113.774 30.236C114.048 30.7279 114.185 31.2964 114.185 31.9415ZM112.746 31.506C112.738 30.998 112.556 30.5908 112.201 30.2843C111.847 29.9779 111.407 29.8247 110.883 29.8247C110.407 29.8247 110 29.9779 109.661 30.2843C109.323 30.5827 109.121 30.9899 109.056 31.506H112.746ZM116.921 29.74C117.123 29.4013 117.389 29.1393 117.719 28.9538C118.058 28.7603 118.457 28.6635 118.917 28.6635V30.0908H118.566C118.026 30.0908 117.615 30.2279 117.332 30.5021C117.058 30.7762 116.921 31.252 116.921 31.9294V35.4372H115.542V28.7723H116.921V29.74ZM126.293 31.9415C126.293 32.1915 126.277 32.4172 126.245 32.6188H121.152C121.192 33.1511 121.39 33.5785 121.745 33.901C122.1 34.2236 122.535 34.3849 123.051 34.3849C123.793 34.3849 124.317 34.0744 124.624 33.4535H126.111C125.91 34.0663 125.543 34.5703 125.011 34.9655C124.487 35.3525 123.833 35.5461 123.051 35.5461C122.414 35.5461 121.842 35.4049 121.334 35.1227C120.834 34.8324 120.438 34.4292 120.148 33.9131C119.866 33.389 119.725 32.7842 119.725 32.0987C119.725 31.4133 119.862 30.8125 120.136 30.2964C120.418 29.7723 120.809 29.3691 121.309 29.0868C121.817 28.8046 122.398 28.6635 123.051 28.6635C123.68 28.6635 124.241 28.8006 124.733 29.0747C125.224 29.3489 125.607 29.736 125.882 30.236C126.156 30.7279 126.293 31.2964 126.293 31.9415ZM124.853 31.506C124.845 30.998 124.664 30.5908 124.309 30.2843C123.954 29.9779 123.515 29.8247 122.991 29.8247C122.515 29.8247 122.108 29.9779 121.769 30.2843C121.43 30.5827 121.229 30.9899 121.164 31.506H124.853Z" fill="#B5B1B1"/>
<path d="M161.954 35.4372L168.161 28.652H155.746L161.954 35.4372Z" fill="#D9D9D9"/>
<defs>
<filter id="filter0_d_1_268" x="0.937073" y="0.437195" width="191.132" height="62" filterUnits="userSpaceOnUse" color-interpolation-filters="sRGB">
<feFlood flood-opacity="0" result="BackgroundImageFix"/>
<feColorMatrix in="SourceAlpha" type="matrix" values="0 0 0 0 0 0 0 0 0 0 0 0 0 0 0 0 0 0 127 0" result="hardAlpha"/>
<feOffset/>
<feGaussianBlur stdDeviation="2"/>
<feComposite in2="hardAlpha" operator="out"/>
<feColorMatrix type="matrix" values="0 0 0 0 0 0 0 0 0 0 0 0 0 0 0 0 0 0 0.25 0"/>
<feBlend mode="normal" in2="BackgroundImageFix" result="effect1_dropShadow_1_268"/>
<feBlend mode="normal" in="SourceGraphic" in2="effect1_dropShadow_1_268" result="shape"/>
</filter>
</defs>
</svg>
