<svg width="122" height="57" viewBox="0 0 122 57" fill="none" xmlns="http://www.w3.org/2000/svg">
<path d="M23.386 42.3753C24.496 42.3753 25.466 42.5903 26.296 43.0203C27.136 43.4403 27.781 44.0503 28.231 44.8503C28.691 45.6403 28.921 46.5653 28.921 47.6253C28.921 48.6853 28.691 49.6053 28.231 50.3853C27.781 51.1653 27.136 51.7653 26.296 52.1853C25.466 52.5953 24.496 52.8003 23.386 52.8003H19.981V42.3753H23.386ZM23.386 51.4053C24.606 51.4053 25.541 51.0753 26.191 50.4153C26.841 49.7553 27.166 48.8253 27.166 47.6253C27.166 46.4153 26.841 45.4703 26.191 44.7903C25.541 44.1103 24.606 43.7703 23.386 43.7703H21.691V51.4053H23.386ZM30.0457 48.6303C30.0457 47.8003 30.2157 47.0653 30.5557 46.4253C30.9057 45.7853 31.3757 45.2903 31.9657 44.9403C32.5657 44.5803 33.2257 44.4003 33.9457 44.4003C34.5957 44.4003 35.1607 44.5303 35.6407 44.7903C36.1307 45.0403 36.5207 45.3553 36.8107 45.7353V44.5353H38.5357V52.8003H36.8107V51.5703C36.5207 51.9603 36.1257 52.2853 35.6257 52.5453C35.1257 52.8053 34.5557 52.9353 33.9157 52.9353C33.2057 52.9353 32.5557 52.7553 31.9657 52.3953C31.3757 52.0253 30.9057 51.5153 30.5557 50.8653C30.2157 50.2053 30.0457 49.4603 30.0457 48.6303ZM36.8107 48.6603C36.8107 48.0903 36.6907 47.5953 36.4507 47.1753C36.2207 46.7553 35.9157 46.4353 35.5357 46.2153C35.1557 45.9953 34.7457 45.8853 34.3057 45.8853C33.8657 45.8853 33.4557 45.9953 33.0757 46.2153C32.6957 46.4253 32.3857 46.7403 32.1457 47.1603C31.9157 47.5703 31.8007 48.0603 31.8007 48.6303C31.8007 49.2003 31.9157 49.7003 32.1457 50.1303C32.3857 50.5603 32.6957 50.8903 33.0757 51.1203C33.4657 51.3403 33.8757 51.4503 34.3057 51.4503C34.7457 51.4503 35.1557 51.3403 35.5357 51.1203C35.9157 50.9003 36.2207 50.5803 36.4507 50.1603C36.6907 49.7303 36.8107 49.2303 36.8107 48.6603ZM43.7817 52.9353C43.1317 52.9353 42.5467 52.8203 42.0267 52.5903C41.5167 52.3503 41.1117 52.0303 40.8117 51.6303C40.5117 51.2203 40.3517 50.7653 40.3317 50.2653H42.1017C42.1317 50.6153 42.2967 50.9103 42.5967 51.1503C42.9067 51.3803 43.2917 51.4953 43.7517 51.4953C44.2317 51.4953 44.6017 51.4053 44.8617 51.2253C45.1317 51.0353 45.2667 50.7953 45.2667 50.5053C45.2667 50.1953 45.1167 49.9653 44.8167 49.8153C44.5267 49.6653 44.0617 49.5003 43.4217 49.3203C42.8017 49.1503 42.2967 48.9853 41.9067 48.8253C41.5167 48.6653 41.1767 48.4203 40.8867 48.0903C40.6067 47.7603 40.4667 47.3253 40.4667 46.7853C40.4667 46.3453 40.5967 45.9453 40.8567 45.5853C41.1167 45.2153 41.4867 44.9253 41.9667 44.7153C42.4567 44.5053 43.0167 44.4003 43.6467 44.4003C44.5867 44.4003 45.3417 44.6403 45.9117 45.1203C46.4917 45.5903 46.8017 46.2353 46.8417 47.0553H45.1317C45.1017 46.6853 44.9517 46.3903 44.6817 46.1703C44.4117 45.9503 44.0467 45.8403 43.5867 45.8403C43.1367 45.8403 42.7917 45.9253 42.5517 46.0953C42.3117 46.2653 42.1917 46.4903 42.1917 46.7703C42.1917 46.9903 42.2717 47.1753 42.4317 47.3253C42.5917 47.4753 42.7867 47.5953 43.0167 47.6853C43.2467 47.7653 43.5867 47.8703 44.0367 48.0003C44.6367 48.1603 45.1267 48.3253 45.5067 48.4953C45.8967 48.6553 46.2317 48.8953 46.5117 49.2153C46.7917 49.5353 46.9367 49.9603 46.9467 50.4903C46.9467 50.9603 46.8167 51.3803 46.5567 51.7503C46.2967 52.1203 45.9267 52.4103 45.4467 52.6203C44.9767 52.8303 44.4217 52.9353 43.7817 52.9353ZM53.0694 44.4003C53.6994 44.4003 54.2594 44.5353 54.7494 44.8053C55.2494 45.0753 55.6394 45.4753 55.9194 46.0053C56.2094 46.5353 56.3544 47.1753 56.3544 47.9253V52.8003H54.6594V48.1803C54.6594 47.4403 54.4744 46.8753 54.1044 46.4853C53.7344 46.0853 53.2294 45.8853 52.5894 45.8853C51.9494 45.8853 51.4394 46.0853 51.0594 46.4853C50.6894 46.8753 50.5044 47.4403 50.5044 48.1803V52.8003H48.7944V41.7003H50.5044V45.4953C50.7944 45.1453 51.1594 44.8753 51.5994 44.6853C52.0494 44.4953 52.5394 44.4003 53.0694 44.4003ZM60.2456 45.7653C60.5356 45.3653 60.9306 45.0403 61.4306 44.7903C61.9406 44.5303 62.5056 44.4003 63.1256 44.4003C63.8556 44.4003 64.5156 44.5753 65.1056 44.9253C65.6956 45.2753 66.1606 45.7753 66.5006 46.4253C66.8406 47.0653 67.0106 47.8003 67.0106 48.6303C67.0106 49.4603 66.8406 50.2053 66.5006 50.8653C66.1606 51.5153 65.6906 52.0253 65.0906 52.3953C64.5006 52.7553 63.8456 52.9353 63.1256 52.9353C62.4856 52.9353 61.9156 52.8103 61.4156 52.5603C60.9256 52.3103 60.5356 51.9903 60.2456 51.6003V52.8003H58.5356V41.7003H60.2456V45.7653ZM65.2706 48.6303C65.2706 48.0603 65.1506 47.5703 64.9106 47.1603C64.6806 46.7403 64.3706 46.4253 63.9806 46.2153C63.6006 45.9953 63.1906 45.8853 62.7506 45.8853C62.3206 45.8853 61.9106 45.9953 61.5206 46.2153C61.1406 46.4353 60.8306 46.7553 60.5906 47.1753C60.3606 47.5953 60.2456 48.0903 60.2456 48.6603C60.2456 49.2303 60.3606 49.7303 60.5906 50.1603C60.8306 50.5803 61.1406 50.9003 61.5206 51.1203C61.9106 51.3403 62.3206 51.4503 62.7506 51.4503C63.1906 51.4503 63.6006 51.3403 63.9806 51.1203C64.3706 50.8903 64.6806 50.5603 64.9106 50.1303C65.1506 49.7003 65.2706 49.2003 65.2706 48.6303ZM72.2867 52.9353C71.5067 52.9353 70.8017 52.7603 70.1717 52.4103C69.5417 52.0503 69.0467 51.5503 68.6867 50.9103C68.3267 50.2603 68.1467 49.5103 68.1467 48.6603C68.1467 47.8203 68.3317 47.0753 68.7017 46.4253C69.0717 45.7753 69.5767 45.2753 70.2167 44.9253C70.8567 44.5753 71.5717 44.4003 72.3617 44.4003C73.1517 44.4003 73.8667 44.5753 74.5067 44.9253C75.1467 45.2753 75.6517 45.7753 76.0217 46.4253C76.3917 47.0753 76.5767 47.8203 76.5767 48.6603C76.5767 49.5003 76.3867 50.2453 76.0067 50.8953C75.6267 51.5453 75.1067 52.0503 74.4467 52.4103C73.7967 52.7603 73.0767 52.9353 72.2867 52.9353ZM72.2867 51.4503C72.7267 51.4503 73.1367 51.3453 73.5167 51.1353C73.9067 50.9253 74.2217 50.6103 74.4617 50.1903C74.7017 49.7703 74.8217 49.2603 74.8217 48.6603C74.8217 48.0603 74.7067 47.5553 74.4767 47.1453C74.2467 46.7253 73.9417 46.4103 73.5617 46.2003C73.1817 45.9903 72.7717 45.8853 72.3317 45.8853C71.8917 45.8853 71.4817 45.9903 71.1017 46.2003C70.7317 46.4103 70.4367 46.7253 70.2167 47.1453C69.9967 47.5553 69.8867 48.0603 69.8867 48.6603C69.8867 49.5503 70.1117 50.2403 70.5617 50.7303C71.0217 51.2103 71.5967 51.4503 72.2867 51.4503ZM77.6971 48.6303C77.6971 47.8003 77.8671 47.0653 78.2071 46.4253C78.5571 45.7853 79.0271 45.2903 79.6171 44.9403C80.2171 44.5803 80.8771 44.4003 81.5971 44.4003C82.2471 44.4003 82.8121 44.5303 83.2921 44.7903C83.7821 45.0403 84.1721 45.3553 84.4621 45.7353V44.5353H86.1871V52.8003H84.4621V51.5703C84.1721 51.9603 83.7771 52.2853 83.2771 52.5453C82.7771 52.8053 82.2071 52.9353 81.5671 52.9353C80.8571 52.9353 80.2071 52.7553 79.6171 52.3953C79.0271 52.0253 78.5571 51.5153 78.2071 50.8653C77.8671 50.2053 77.6971 49.4603 77.6971 48.6303ZM84.4621 48.6603C84.4621 48.0903 84.3421 47.5953 84.1021 47.1753C83.8721 46.7553 83.5671 46.4353 83.1871 46.2153C82.8071 45.9953 82.3971 45.8853 81.9571 45.8853C81.5171 45.8853 81.1071 45.9953 80.7271 46.2153C80.3471 46.4253 80.0371 46.7403 79.7971 47.1603C79.5671 47.5703 79.4521 48.0603 79.4521 48.6303C79.4521 49.2003 79.5671 49.7003 79.7971 50.1303C80.0371 50.5603 80.3471 50.8903 80.7271 51.1203C81.1171 51.3403 81.5271 51.4503 81.9571 51.4503C82.3971 51.4503 82.8071 51.3403 83.1871 51.1203C83.5671 50.9003 83.8721 50.5803 84.1021 50.1603C84.3421 49.7303 84.4621 49.2303 84.4621 48.6603ZM90.1431 45.7353C90.3931 45.3153 90.7231 44.9903 91.1331 44.7603C91.5531 44.5203 92.0481 44.4003 92.6181 44.4003V46.1703H92.1831C91.5131 46.1703 91.0031 46.3403 90.6531 46.6803C90.3131 47.0203 90.1431 47.6103 90.1431 48.4503V52.8003H88.4331V44.5353H90.1431V45.7353ZM93.6199 48.6303C93.6199 47.8003 93.7899 47.0653 94.1299 46.4253C94.4799 45.7853 94.9499 45.2903 95.5399 44.9403C96.1399 44.5803 96.8049 44.4003 97.5349 44.4003C98.0749 44.4003 98.6049 44.5203 99.1249 44.7603C99.6549 44.9903 100.075 45.3003 100.385 45.6903V41.7003H102.11V52.8003H100.385V51.5553C100.105 51.9553 99.7149 52.2853 99.2149 52.5453C98.7249 52.8053 98.1599 52.9353 97.5199 52.9353C96.7999 52.9353 96.1399 52.7553 95.5399 52.3953C94.9499 52.0253 94.4799 51.5153 94.1299 50.8653C93.7899 50.2053 93.6199 49.4603 93.6199 48.6303ZM100.385 48.6603C100.385 48.0903 100.265 47.5953 100.025 47.1753C99.7949 46.7553 99.4899 46.4353 99.1099 46.2153C98.7299 45.9953 98.3199 45.8853 97.8799 45.8853C97.4399 45.8853 97.0299 45.9953 96.6499 46.2153C96.2699 46.4253 95.9599 46.7403 95.7199 47.1603C95.4899 47.5703 95.3749 48.0603 95.3749 48.6303C95.3749 49.2003 95.4899 49.7003 95.7199 50.1303C95.9599 50.5603 96.2699 50.8903 96.6499 51.1203C97.0399 51.3403 97.4499 51.4503 97.8799 51.4503C98.3199 51.4503 98.7299 51.3403 99.1099 51.1203C99.4899 50.9003 99.7949 50.5803 100.025 50.1603C100.265 49.7303 100.385 49.2303 100.385 48.6603Z" fill="white"/>
<rect x="48.6611" y="11.8566" width="9.11587" height="9.11587" rx="1.01931" stroke="white" stroke-width="1.5"/>
<rect x="61.0014" y="11.8566" width="9.11587" height="9.11587" rx="1.01931" stroke="white" stroke-width="1.5"/>
<rect x="61.0014" y="23.9344" width="9.11587" height="9.11587" rx="1.01931" stroke="white" stroke-width="1.5"/>
<rect x="48.6611" y="23.9344" width="9.11587" height="9.11587" rx="1.01931" stroke="white" stroke-width="1.5"/>
</svg>
