<svg width="80" height="82" viewBox="0 0 80 82" fill="none" xmlns="http://www.w3.org/2000/svg">
<path d="M46.3247 18.3518H32.3247C31.2201 18.3518 30.3247 19.2472 30.3247 20.3518V34.3518C30.3247 35.4563 31.2201 36.3518 32.3247 36.3518H46.3247C47.4293 36.3518 48.3247 35.4563 48.3247 34.3518V20.3518C48.3247 19.2472 47.4293 18.3518 46.3247 18.3518Z" stroke="white" stroke-width="2" stroke-linecap="round" stroke-linejoin="round"/>
<path d="M43.3247 16.3518V20.3518" stroke="white" stroke-width="2" stroke-linecap="round" stroke-linejoin="round"/>
<path d="M35.3247 16.3518V20.3518" stroke="white" stroke-width="2" stroke-linecap="round" stroke-linejoin="round"/>
<path d="M30.3247 24.3518H48.3247" stroke="white" stroke-width="2" stroke-linecap="round" stroke-linejoin="round"/>
<circle cx="58.2376" cy="11.9556" r="8.96859" fill="#FFD600"/>
<path d="M54.6547 9.22078C54.7147 8.29078 55.0697 7.56578 55.7197 7.04578C56.3797 6.52578 57.2197 6.26578 58.2397 6.26578C58.9397 6.26578 59.5447 6.39078 60.0547 6.64078C60.5647 6.89078 60.9497 7.23078 61.2097 7.66078C61.4697 8.09078 61.5997 8.57578 61.5997 9.11578C61.5997 9.73578 61.4347 10.2658 61.1047 10.7058C60.7747 11.1458 60.3797 11.4408 59.9197 11.5908V11.6508C60.5097 11.8308 60.9697 12.1608 61.2997 12.6408C61.6297 13.1108 61.7947 13.7158 61.7947 14.4558C61.7947 15.0458 61.6597 15.5708 61.3897 16.0308C61.1197 16.4908 60.7197 16.8558 60.1897 17.1258C59.6597 17.3858 59.0247 17.5158 58.2847 17.5158C57.2047 17.5158 56.3147 17.2408 55.6147 16.6908C54.9247 16.1308 54.5547 15.3308 54.5047 14.2908H56.1547C56.1947 14.8208 56.3997 15.2558 56.7697 15.5958C57.1397 15.9258 57.6397 16.0908 58.2697 16.0908C58.8797 16.0908 59.3497 15.9258 59.6797 15.5958C60.0097 15.2558 60.1747 14.8208 60.1747 14.2908C60.1747 13.5908 59.9497 13.0958 59.4997 12.8058C59.0597 12.5058 58.3797 12.3558 57.4597 12.3558H57.0697V10.9458H57.4747C58.2847 10.9358 58.8997 10.8008 59.3197 10.5408C59.7497 10.2808 59.9647 9.87078 59.9647 9.31078C59.9647 8.83078 59.8097 8.45078 59.4997 8.17078C59.1897 7.88078 58.7497 7.73578 58.1797 7.73578C57.6197 7.73578 57.1847 7.88078 56.8747 8.17078C56.5647 8.45078 56.3797 8.80078 56.3197 9.22078H54.6547Z" fill="black"/>
<path d="M3.87957 44.7273V51.3723C3.87957 52.1623 4.08457 52.7573 4.49457 53.1573C4.91457 53.5573 5.49457 53.7573 6.23457 53.7573C6.98457 53.7573 7.56457 53.5573 7.97457 53.1573C8.39457 52.7573 8.60457 52.1623 8.60457 51.3723V44.7273H10.3146V51.3423C10.3146 52.1923 10.1296 52.9123 9.75957 53.5023C9.38957 54.0923 8.89457 54.5323 8.27457 54.8223C7.65457 55.1123 6.96957 55.2573 6.21957 55.2573C5.46957 55.2573 4.78457 55.1123 4.16457 54.8223C3.55457 54.5323 3.06957 54.0923 2.70957 53.5023C2.34957 52.9123 2.16957 52.1923 2.16957 51.3423V44.7273H3.87957ZM14.251 48.1023C14.541 47.7223 14.936 47.4023 15.436 47.1423C15.936 46.8823 16.501 46.7523 17.131 46.7523C17.851 46.7523 18.506 46.9323 19.096 47.2923C19.696 47.6423 20.166 48.1373 20.506 48.7773C20.846 49.4173 21.016 50.1523 21.016 50.9823C21.016 51.8123 20.846 52.5573 20.506 53.2173C20.166 53.8673 19.696 54.3773 19.096 54.7473C18.506 55.1073 17.851 55.2873 17.131 55.2873C16.501 55.2873 15.941 55.1623 15.451 54.9123C14.961 54.6523 14.561 54.3323 14.251 53.9523V59.0823H12.541V46.8873H14.251V48.1023ZM19.276 50.9823C19.276 50.4123 19.156 49.9223 18.916 49.5123C18.686 49.0923 18.376 48.7773 17.986 48.5673C17.606 48.3473 17.196 48.2373 16.756 48.2373C16.326 48.2373 15.916 48.3473 15.526 48.5673C15.146 48.7873 14.836 49.1073 14.596 49.5273C14.366 49.9473 14.251 50.4423 14.251 51.0123C14.251 51.5823 14.366 52.0823 14.596 52.5123C14.836 52.9323 15.146 53.2523 15.526 53.4723C15.916 53.6923 16.326 53.8023 16.756 53.8023C17.196 53.8023 17.606 53.6923 17.986 53.4723C18.376 53.2423 18.686 52.9123 18.916 52.4823C19.156 52.0523 19.276 51.5523 19.276 50.9823ZM22.137 51.0123C22.137 50.1623 22.307 49.4173 22.647 48.7773C22.997 48.1273 23.477 47.6273 24.087 47.2773C24.697 46.9273 25.397 46.7523 26.187 46.7523C27.187 46.7523 28.012 46.9923 28.662 47.4723C29.322 47.9423 29.767 48.6173 29.997 49.4973H28.152C28.002 49.0873 27.762 48.7673 27.432 48.5373C27.102 48.3073 26.687 48.1923 26.187 48.1923C25.487 48.1923 24.927 48.4423 24.507 48.9423C24.097 49.4323 23.892 50.1223 23.892 51.0123C23.892 51.9023 24.097 52.5973 24.507 53.0973C24.927 53.5973 25.487 53.8473 26.187 53.8473C27.177 53.8473 27.832 53.4123 28.152 52.5423H29.997C29.757 53.3823 29.307 54.0523 28.647 54.5523C27.987 55.0423 27.167 55.2873 26.187 55.2873C25.397 55.2873 24.697 55.1123 24.087 54.7623C23.477 54.4023 22.997 53.9023 22.647 53.2623C22.307 52.6123 22.137 51.8623 22.137 51.0123ZM35.2862 55.2873C34.5062 55.2873 33.8012 55.1123 33.1712 54.7623C32.5412 54.4023 32.0462 53.9023 31.6862 53.2623C31.3262 52.6123 31.1462 51.8623 31.1462 51.0123C31.1462 50.1723 31.3312 49.4273 31.7012 48.7773C32.0712 48.1273 32.5762 47.6273 33.2162 47.2773C33.8562 46.9273 34.5712 46.7523 35.3612 46.7523C36.1512 46.7523 36.8662 46.9273 37.5062 47.2773C38.1462 47.6273 38.6512 48.1273 39.0212 48.7773C39.3912 49.4273 39.5762 50.1723 39.5762 51.0123C39.5762 51.8523 39.3862 52.5973 39.0062 53.2473C38.6262 53.8973 38.1062 54.4023 37.4462 54.7623C36.7962 55.1123 36.0762 55.2873 35.2862 55.2873ZM35.2862 53.8023C35.7262 53.8023 36.1362 53.6973 36.5162 53.4873C36.9062 53.2773 37.2212 52.9623 37.4612 52.5423C37.7012 52.1223 37.8212 51.6123 37.8212 51.0123C37.8212 50.4123 37.7062 49.9073 37.4762 49.4973C37.2462 49.0773 36.9412 48.7623 36.5612 48.5523C36.1812 48.3423 35.7712 48.2373 35.3312 48.2373C34.8912 48.2373 34.4812 48.3423 34.1012 48.5523C33.7312 48.7623 33.4362 49.0773 33.2162 49.4973C32.9962 49.9073 32.8862 50.4123 32.8862 51.0123C32.8862 51.9023 33.1112 52.5923 33.5612 53.0823C34.0212 53.5623 34.5962 53.8023 35.2862 53.8023ZM51.2716 46.7523C51.9216 46.7523 52.5016 46.8873 53.0116 47.1573C53.5316 47.4273 53.9366 47.8273 54.2266 48.3573C54.5266 48.8873 54.6766 49.5273 54.6766 50.2773V55.1523H52.9816V50.5323C52.9816 49.7923 52.7966 49.2273 52.4266 48.8373C52.0566 48.4373 51.5516 48.2373 50.9116 48.2373C50.2716 48.2373 49.7616 48.4373 49.3816 48.8373C49.0116 49.2273 48.8266 49.7923 48.8266 50.5323V55.1523H47.1316V50.5323C47.1316 49.7923 46.9466 49.2273 46.5766 48.8373C46.2066 48.4373 45.7016 48.2373 45.0616 48.2373C44.4216 48.2373 43.9116 48.4373 43.5316 48.8373C43.1616 49.2273 42.9766 49.7923 42.9766 50.5323V55.1523H41.2666V46.8873H42.9766V47.8323C43.2566 47.4923 43.6116 47.2273 44.0416 47.0373C44.4716 46.8473 44.9316 46.7523 45.4216 46.7523C46.0816 46.7523 46.6716 46.8923 47.1916 47.1723C47.7116 47.4523 48.1116 47.8573 48.3916 48.3873C48.6416 47.8873 49.0316 47.4923 49.5616 47.2023C50.0916 46.9023 50.6616 46.7523 51.2716 46.7523ZM57.7225 45.7923C57.4125 45.7923 57.1525 45.6873 56.9425 45.4773C56.7325 45.2673 56.6275 45.0073 56.6275 44.6973C56.6275 44.3873 56.7325 44.1273 56.9425 43.9173C57.1525 43.7073 57.4125 43.6023 57.7225 43.6023C58.0225 43.6023 58.2775 43.7073 58.4875 43.9173C58.6975 44.1273 58.8025 44.3873 58.8025 44.6973C58.8025 45.0073 58.6975 45.2673 58.4875 45.4773C58.2775 45.6873 58.0225 45.7923 57.7225 45.7923ZM58.5625 46.8873V55.1523H56.8525V46.8873H58.5625ZM64.9776 46.7523C65.6276 46.7523 66.2076 46.8873 66.7176 47.1573C67.2376 47.4273 67.6426 47.8273 67.9326 48.3573C68.2226 48.8873 68.3676 49.5273 68.3676 50.2773V55.1523H66.6726V50.5323C66.6726 49.7923 66.4876 49.2273 66.1176 48.8373C65.7476 48.4373 65.2426 48.2373 64.6026 48.2373C63.9626 48.2373 63.4526 48.4373 63.0726 48.8373C62.7026 49.2273 62.5176 49.7923 62.5176 50.5323V55.1523H60.8076V46.8873H62.5176V47.8323C62.7976 47.4923 63.1526 47.2273 63.5826 47.0373C64.0226 46.8473 64.4876 46.7523 64.9776 46.7523ZM73.8788 46.7523C74.5188 46.7523 75.0838 46.8823 75.5738 47.1423C76.0738 47.3923 76.4638 47.7073 76.7438 48.0873V46.8873H78.4688V55.2873C78.4688 56.0473 78.3088 56.7223 77.9888 57.3123C77.6688 57.9123 77.2038 58.3823 76.5938 58.7223C75.9938 59.0623 75.2738 59.2323 74.4338 59.2323C73.3138 59.2323 72.3838 58.9673 71.6438 58.4373C70.9038 57.9173 70.4838 57.2073 70.3838 56.3073H72.0788C72.2088 56.7373 72.4838 57.0823 72.9038 57.3423C73.3338 57.6123 73.8438 57.7473 74.4338 57.7473C75.1238 57.7473 75.6788 57.5373 76.0988 57.1173C76.5288 56.6973 76.7438 56.0873 76.7438 55.2873V53.9073C76.4538 54.2973 76.0588 54.6273 75.5588 54.8973C75.0688 55.1573 74.5088 55.2873 73.8788 55.2873C73.1588 55.2873 72.4988 55.1073 71.8988 54.7473C71.3088 54.3773 70.8388 53.8673 70.4888 53.2173C70.1488 52.5573 69.9788 51.8123 69.9788 50.9823C69.9788 50.1523 70.1488 49.4173 70.4888 48.7773C70.8388 48.1373 71.3088 47.6423 71.8988 47.2923C72.4988 46.9323 73.1588 46.7523 73.8788 46.7523ZM76.7438 51.0123C76.7438 50.4423 76.6238 49.9473 76.3838 49.5273C76.1538 49.1073 75.8488 48.7873 75.4688 48.5673C75.0888 48.3473 74.6788 48.2373 74.2388 48.2373C73.7988 48.2373 73.3888 48.3473 73.0088 48.5673C72.6288 48.7773 72.3188 49.0923 72.0788 49.5123C71.8488 49.9223 71.7338 50.4123 71.7338 50.9823C71.7338 51.5523 71.8488 52.0523 72.0788 52.4823C72.3188 52.9123 72.6288 53.2423 73.0088 53.4723C73.3988 53.6923 73.8088 53.8023 74.2388 53.8023C74.6788 53.8023 75.0888 53.6923 75.4688 53.4723C75.8488 53.2523 76.1538 52.9323 76.3838 52.5123C76.6238 52.0823 76.7438 51.5823 76.7438 51.0123ZM18.6089 67.1073V70.1673H22.2089V71.5623H18.6089V74.7573H22.6589V76.1523H16.8989V65.7123H22.6589V67.1073H18.6089ZM27.9601 74.6223L30.3001 67.8873H32.1151L28.9651 76.1523H26.9251L23.7901 67.8873H25.6201L27.9601 74.6223ZM40.9827 71.8173C40.9827 72.1273 40.9627 72.4073 40.9227 72.6573H34.6077C34.6577 73.3173 34.9027 73.8473 35.3427 74.2473C35.7827 74.6473 36.3227 74.8473 36.9627 74.8473C37.8827 74.8473 38.5327 74.4623 38.9127 73.6923H40.7577C40.5077 74.4523 40.0527 75.0773 39.3927 75.5673C38.7427 76.0473 37.9327 76.2873 36.9627 76.2873C36.1727 76.2873 35.4627 76.1123 34.8327 75.7623C34.2127 75.4023 33.7227 74.9023 33.3627 74.2623C33.0127 73.6123 32.8377 72.8623 32.8377 72.0123C32.8377 71.1623 33.0077 70.4173 33.3477 69.7773C33.6977 69.1273 34.1827 68.6273 34.8027 68.2773C35.4327 67.9273 36.1527 67.7523 36.9627 67.7523C37.7427 67.7523 38.4377 67.9223 39.0477 68.2623C39.6577 68.6023 40.1327 69.0823 40.4727 69.7023C40.8127 70.3123 40.9827 71.0173 40.9827 71.8173ZM39.1977 71.2773C39.1877 70.6473 38.9627 70.1423 38.5227 69.7623C38.0827 69.3823 37.5377 69.1923 36.8877 69.1923C36.2977 69.1923 35.7927 69.3823 35.3727 69.7623C34.9527 70.1323 34.7027 70.6373 34.6227 71.2773H39.1977ZM46.8355 67.7523C47.4855 67.7523 48.0655 67.8873 48.5755 68.1573C49.0955 68.4273 49.5005 68.8273 49.7905 69.3573C50.0805 69.8873 50.2255 70.5273 50.2255 71.2773V76.1523H48.5305V71.5323C48.5305 70.7923 48.3455 70.2273 47.9755 69.8373C47.6055 69.4373 47.1005 69.2373 46.4605 69.2373C45.8205 69.2373 45.3105 69.4373 44.9305 69.8373C44.5605 70.2273 44.3755 70.7923 44.3755 71.5323V76.1523H42.6655V67.8873H44.3755V68.8323C44.6555 68.4923 45.0105 68.2273 45.4405 68.0373C45.8805 67.8473 46.3455 67.7523 46.8355 67.7523ZM54.4017 69.2823V73.8573C54.4017 74.1673 54.4717 74.3923 54.6117 74.5323C54.7617 74.6623 55.0117 74.7273 55.3617 74.7273H56.4117V76.1523H55.0617C54.2917 76.1523 53.7017 75.9723 53.2917 75.6123C52.8817 75.2523 52.6767 74.6673 52.6767 73.8573V69.2823H51.7017V67.8873H52.6767V65.8323H54.4017V67.8873H56.4117V69.2823H54.4017ZM60.9878 76.2873C60.3378 76.2873 59.7528 76.1723 59.2328 75.9423C58.7228 75.7023 58.3178 75.3823 58.0178 74.9823C57.7178 74.5723 57.5578 74.1173 57.5378 73.6173H59.3078C59.3378 73.9673 59.5028 74.2623 59.8028 74.5023C60.1128 74.7323 60.4978 74.8473 60.9578 74.8473C61.4378 74.8473 61.8078 74.7573 62.0678 74.5773C62.3378 74.3873 62.4728 74.1473 62.4728 73.8573C62.4728 73.5473 62.3228 73.3173 62.0228 73.1673C61.7328 73.0173 61.2678 72.8523 60.6278 72.6723C60.0078 72.5023 59.5028 72.3373 59.1128 72.1773C58.7228 72.0173 58.3828 71.7723 58.0928 71.4423C57.8128 71.1123 57.6728 70.6773 57.6728 70.1373C57.6728 69.6973 57.8028 69.2973 58.0628 68.9373C58.3228 68.5673 58.6928 68.2773 59.1728 68.0673C59.6628 67.8573 60.2228 67.7523 60.8528 67.7523C61.7928 67.7523 62.5478 67.9923 63.1178 68.4723C63.6978 68.9423 64.0078 69.5873 64.0478 70.4073H62.3378C62.3078 70.0373 62.1578 69.7423 61.8878 69.5223C61.6178 69.3023 61.2528 69.1923 60.7928 69.1923C60.3428 69.1923 59.9978 69.2773 59.7578 69.4473C59.5178 69.6173 59.3978 69.8423 59.3978 70.1223C59.3978 70.3423 59.4778 70.5273 59.6378 70.6773C59.7978 70.8273 59.9928 70.9473 60.2228 71.0373C60.4528 71.1173 60.7928 71.2223 61.2428 71.3523C61.8428 71.5123 62.3328 71.6773 62.7128 71.8473C63.1028 72.0073 63.4378 72.2473 63.7178 72.5673C63.9978 72.8873 64.1428 73.3123 64.1528 73.8423C64.1528 74.3123 64.0228 74.7323 63.7628 75.1023C63.5028 75.4723 63.1328 75.7623 62.6528 75.9723C62.1828 76.1823 61.6278 76.2873 60.9878 76.2873Z" fill="white"/>
</svg>
