<svg width="228" height="63" viewBox="0 0 228 63" fill="none" xmlns="http://www.w3.org/2000/svg">
<g filter="url(#filter0_d_1_275)">
<rect x="4.63599" y="4.43719" width="183.132" height="54" rx="12" fill="white"/>
</g>
<rect x="26.3347" y="25.8981" width="26.1214" height="2.05143" rx="1.02571" fill="#D9D9D9"/>
<rect x="29.6169" y="31.1504" width="19.5569" height="2.05143" rx="1.02571" fill="#D9D9D9"/>
<rect x="35.6097" y="36.4027" width="7.57139" height="2.05143" rx="1.02571" fill="#D9D9D9"/>
<path d="M77.4075 27.0305V28.1555H73.8392V30.6351H76.6212V31.76H73.8392V35.4372H72.4602V27.0305H77.4075ZM79.3869 27.8893C79.137 27.8893 78.9273 27.8047 78.758 27.6353C78.5886 27.466 78.5039 27.2563 78.5039 27.0063C78.5039 26.7564 78.5886 26.5467 78.758 26.3774C78.9273 26.208 79.137 26.1233 79.3869 26.1233C79.6289 26.1233 79.8345 26.208 80.0038 26.3774C80.1732 26.5467 80.2578 26.7564 80.2578 27.0063C80.2578 27.2563 80.1732 27.466 80.0038 27.6353C79.8345 27.8047 79.6289 27.8893 79.3869 27.8893ZM80.0643 28.7723V35.4372H78.6854V28.7723H80.0643ZM83.2537 26.4862V35.4372H81.8747V26.4862H83.2537ZM86.6728 29.8973V33.5865C86.6728 33.8365 86.7293 34.0179 86.8422 34.1308C86.9631 34.2357 87.1647 34.2881 87.447 34.2881H88.2937V35.4372H87.2051C86.5841 35.4372 86.1084 35.292 85.7777 35.0017C85.4471 34.7114 85.2818 34.2397 85.2818 33.5865V29.8973H84.4956V28.7723H85.2818V27.1152H86.6728V28.7723H88.2937V29.8973H86.6728ZM95.673 31.9415C95.673 32.1915 95.6569 32.4172 95.6247 32.6188H90.5323C90.5726 33.1511 90.7702 33.5785 91.125 33.901C91.4798 34.2236 91.9153 34.3849 92.4313 34.3849C93.1732 34.3849 93.6974 34.0744 94.0038 33.4535H95.4916C95.29 34.0663 94.9231 34.5703 94.3909 34.9655C93.8667 35.3525 93.2135 35.5461 92.4313 35.5461C91.7943 35.5461 91.2218 35.4049 90.7137 35.1227C90.2138 34.8324 89.8186 34.4292 89.5283 33.9131C89.2461 33.389 89.105 32.7842 89.105 32.0987C89.105 31.4133 89.2421 30.8125 89.5162 30.2964C89.7985 29.7723 90.1896 29.3691 90.6895 29.0868C91.1976 28.8046 91.7782 28.6635 92.4313 28.6635C93.0603 28.6635 93.6208 28.8006 94.1127 29.0747C94.6046 29.3489 94.9876 29.736 95.2618 30.236C95.536 30.7279 95.673 31.2964 95.673 31.9415ZM94.2336 31.506C94.2256 30.998 94.0441 30.5908 93.6893 30.2843C93.3345 29.9779 92.895 29.8247 92.3709 29.8247C91.8951 29.8247 91.4879 29.9779 91.1492 30.2843C90.8105 30.5827 90.6089 30.9899 90.5444 31.506H94.2336ZM98.409 29.74C98.6106 29.4013 98.8767 29.1393 99.2073 28.9538C99.546 28.7603 99.9452 28.6635 100.405 28.6635V30.0908H100.054C99.5138 30.0908 99.1025 30.2279 98.8203 30.5021C98.5461 30.7762 98.409 31.252 98.409 31.9294V35.4372H97.0301V28.7723H98.409V29.74ZM104.092 35.5461C103.567 35.5461 103.096 35.4533 102.676 35.2679C102.265 35.0743 101.938 34.8163 101.697 34.4937C101.455 34.1631 101.326 33.7962 101.309 33.393H102.737C102.761 33.6752 102.894 33.9131 103.136 34.1066C103.386 34.2921 103.696 34.3849 104.067 34.3849C104.454 34.3849 104.753 34.3123 104.962 34.1671C105.18 34.0139 105.289 33.8204 105.289 33.5865C105.289 33.3365 105.168 33.1511 104.926 33.0301C104.692 32.9091 104.317 32.7761 103.801 32.6309C103.301 32.4939 102.894 32.3608 102.58 32.2318C102.265 32.1028 101.991 31.9052 101.757 31.6391C101.531 31.373 101.418 31.0222 101.418 30.5867C101.418 30.2319 101.523 29.9094 101.733 29.6191C101.942 29.3207 102.241 29.0868 102.628 28.9175C103.023 28.7482 103.475 28.6635 103.983 28.6635C104.741 28.6635 105.349 28.857 105.809 29.2441C106.277 29.6231 106.527 30.1432 106.559 30.8045H105.18C105.156 30.5061 105.035 30.2682 104.817 30.0908C104.6 29.9134 104.305 29.8247 103.934 29.8247C103.571 29.8247 103.293 29.8932 103.1 30.0303C102.906 30.1674 102.809 30.3488 102.809 30.5746C102.809 30.752 102.874 30.9012 103.003 31.0222C103.132 31.1431 103.289 31.2399 103.475 31.3125C103.66 31.377 103.934 31.4617 104.297 31.5665C104.781 31.6955 105.176 31.8286 105.483 31.9657C105.797 32.0947 106.067 32.2882 106.293 32.5463C106.519 32.8043 106.636 33.147 106.644 33.5744C106.644 33.9534 106.539 34.2921 106.329 34.5905C106.12 34.8888 105.821 35.1227 105.434 35.292C105.055 35.4614 104.608 35.5461 104.092 35.5461Z" fill="#B5B1B1"/>
<circle cx="151.64" cy="31.4372" r="11.1896" fill="#22506C"/>
<path d="M154.051 28.5436H149.999V30.9507C150.168 30.7249 150.418 30.5354 150.748 30.3822C151.087 30.229 151.446 30.1524 151.825 30.1524C152.502 30.1524 153.051 30.2975 153.47 30.5878C153.897 30.8781 154.2 31.245 154.377 31.6886C154.563 32.1321 154.655 32.5998 154.655 33.0917C154.655 33.6884 154.539 34.2206 154.305 34.6884C154.079 35.148 153.736 35.5109 153.276 35.777C152.825 36.0431 152.269 36.1761 151.607 36.1761C150.728 36.1761 150.023 35.9584 149.49 35.523C148.958 35.0875 148.64 34.5109 148.535 33.7933H149.878C149.966 34.1723 150.164 34.4747 150.47 34.7004C150.777 34.9182 151.16 35.027 151.619 35.027C152.192 35.027 152.619 34.8537 152.902 34.5069C153.192 34.1602 153.337 33.7005 153.337 33.128C153.337 32.5474 153.192 32.1039 152.902 31.7974C152.611 31.4829 152.184 31.3257 151.619 31.3257C151.224 31.3257 150.89 31.4265 150.615 31.6281C150.349 31.8216 150.156 32.0877 150.035 32.4264H148.728V27.334H154.051V28.5436Z" fill="white"/>
<defs>
<filter id="filter0_d_1_275" x="0.635986" y="0.437195" width="191.132" height="62" filterUnits="userSpaceOnUse" color-interpolation-filters="sRGB">
<feFlood flood-opacity="0" result="BackgroundImageFix"/>
<feColorMatrix in="SourceAlpha" type="matrix" values="0 0 0 0 0 0 0 0 0 0 0 0 0 0 0 0 0 0 127 0" result="hardAlpha"/>
<feOffset/>
<feGaussianBlur stdDeviation="2"/>
<feComposite in2="hardAlpha" operator="out"/>
<feColorMatrix type="matrix" values="0 0 0 0 0 0 0 0 0 0 0 0 0 0 0 0 0 0 0.25 0"/>
<feBlend mode="normal" in2="BackgroundImageFix" result="effect1_dropShadow_1_275"/>
<feBlend mode="normal" in="SourceGraphic" in2="effect1_dropShadow_1_275" result="shape"/>
</filter>
</defs>
</svg>
