<svg width="121" height="58" viewBox="0 0 121 58" fill="none" xmlns="http://www.w3.org/2000/svg">
<path d="M-1.12012 0.337616H4.61594C7.37737 0.337616 9.61594 2.57619 9.61594 5.33762V51.186C9.61594 53.9474 7.37737 56.186 4.61595 56.186H-1.12012V0.337616Z" fill="#FDDC30"/>
<path d="M120.409 56.1862H114.673C111.912 56.1862 109.673 53.9477 109.673 51.1862V5.3379C109.673 2.57647 111.912 0.337902 114.673 0.337902H120.409V56.1862Z" fill="#FDDC30"/>
<path d="M68.6445 14.2619H52.6445C51.54 14.2619 50.6445 15.1574 50.6445 16.2619V26.2619C50.6445 27.3665 51.54 28.2619 52.6445 28.2619H68.6445C69.7491 28.2619 70.6445 27.3665 70.6445 26.2619V16.2619C70.6445 15.1574 69.7491 14.2619 68.6445 14.2619Z" stroke="white" stroke-width="2" stroke-linecap="round" stroke-linejoin="round"/>
<path d="M64.6445 14.2619V10.7064C64.6445 10.5885 64.4338 10.4755 64.0587 10.3921C63.6837 10.3088 63.175 10.2619 62.6445 10.2619H58.6445C58.1141 10.2619 57.6054 10.3088 57.2303 10.3921C56.8552 10.4755 56.6445 10.5885 56.6445 10.7064V14.2619" stroke="white" stroke-width="2" stroke-linecap="round" stroke-linejoin="round"/>
<path d="M40.9297 41.0056V51.4306H39.2197V44.2906L36.0397 51.4306H34.8547L31.6597 44.2906V51.4306H29.9497V41.0056H31.7947L35.4547 49.1806L39.0997 41.0056H40.9297ZM50.6172 43.1656L45.5472 55.3156H43.7772L45.4572 51.2956L42.2022 43.1656H44.1072L46.4322 49.4656L48.8472 43.1656H50.6172ZM61.4892 41.0056V48.5206C61.4892 49.4506 61.2042 50.1856 60.6342 50.7256C60.0742 51.2656 59.3342 51.5356 58.4142 51.5356C57.4942 51.5356 56.7492 51.2656 56.1792 50.7256C55.6192 50.1856 55.3392 49.4506 55.3392 48.5206H57.0642C57.0742 48.9806 57.1892 49.3456 57.4092 49.6156C57.6392 49.8856 57.9742 50.0206 58.4142 50.0206C58.8542 50.0206 59.1892 49.8856 59.4192 49.6156C59.6492 49.3356 59.7642 48.9706 59.7642 48.5206V41.0056H61.4892ZM67.856 51.5656C67.076 51.5656 66.371 51.3906 65.741 51.0406C65.111 50.6806 64.616 50.1806 64.256 49.5406C63.896 48.8906 63.716 48.1406 63.716 47.2906C63.716 46.4506 63.901 45.7056 64.271 45.0556C64.641 44.4056 65.146 43.9056 65.786 43.5556C66.426 43.2056 67.141 43.0306 67.931 43.0306C68.721 43.0306 69.436 43.2056 70.076 43.5556C70.716 43.9056 71.221 44.4056 71.591 45.0556C71.961 45.7056 72.146 46.4506 72.146 47.2906C72.146 48.1306 71.956 48.8756 71.576 49.5256C71.196 50.1756 70.676 50.6806 70.016 51.0406C69.366 51.3906 68.646 51.5656 67.856 51.5656ZM67.856 50.0806C68.296 50.0806 68.706 49.9756 69.086 49.7656C69.476 49.5556 69.791 49.2406 70.031 48.8206C70.271 48.4006 70.391 47.8906 70.391 47.2906C70.391 46.6906 70.276 46.1856 70.046 45.7756C69.816 45.3556 69.511 45.0406 69.131 44.8306C68.751 44.6206 68.341 44.5156 67.901 44.5156C67.461 44.5156 67.051 44.6206 66.671 44.8306C66.301 45.0406 66.006 45.3556 65.786 45.7756C65.566 46.1856 65.456 46.6906 65.456 47.2906C65.456 48.1806 65.681 48.8706 66.131 49.3606C66.591 49.8406 67.166 50.0806 67.856 50.0806ZM75.5464 44.3956C75.8364 43.9956 76.2314 43.6706 76.7314 43.4206C77.2414 43.1606 77.8064 43.0306 78.4264 43.0306C79.1564 43.0306 79.8164 43.2056 80.4064 43.5556C80.9964 43.9056 81.4614 44.4056 81.8014 45.0556C82.1414 45.6956 82.3114 46.4306 82.3114 47.2606C82.3114 48.0906 82.1414 48.8356 81.8014 49.4956C81.4614 50.1456 80.9914 50.6556 80.3914 51.0256C79.8014 51.3856 79.1464 51.5656 78.4264 51.5656C77.7864 51.5656 77.2164 51.4406 76.7164 51.1906C76.2264 50.9406 75.8364 50.6206 75.5464 50.2306V51.4306H73.8364V40.3306H75.5464V44.3956ZM80.5714 47.2606C80.5714 46.6906 80.4514 46.2006 80.2114 45.7906C79.9814 45.3706 79.6714 45.0556 79.2814 44.8456C78.9014 44.6256 78.4914 44.5156 78.0514 44.5156C77.6214 44.5156 77.2114 44.6256 76.8214 44.8456C76.4414 45.0656 76.1314 45.3856 75.8914 45.8056C75.6614 46.2256 75.5464 46.7206 75.5464 47.2906C75.5464 47.8606 75.6614 48.3606 75.8914 48.7906C76.1314 49.2106 76.4414 49.5306 76.8214 49.7506C77.2114 49.9706 77.6214 50.0806 78.0514 50.0806C78.4914 50.0806 78.9014 49.9706 79.2814 49.7506C79.6714 49.5206 79.9814 49.1906 80.2114 48.7606C80.4514 48.3306 80.5714 47.8306 80.5714 47.2606ZM87.0024 51.5656C86.3524 51.5656 85.7674 51.4506 85.2474 51.2206C84.7374 50.9806 84.3324 50.6606 84.0324 50.2606C83.7324 49.8506 83.5724 49.3956 83.5524 48.8956H85.3224C85.3524 49.2456 85.5174 49.5406 85.8174 49.7806C86.1274 50.0106 86.5124 50.1256 86.9724 50.1256C87.4524 50.1256 87.8224 50.0356 88.0824 49.8556C88.3524 49.6656 88.4874 49.4256 88.4874 49.1356C88.4874 48.8256 88.3374 48.5956 88.0374 48.4456C87.7474 48.2956 87.2824 48.1306 86.6424 47.9506C86.0224 47.7806 85.5174 47.6156 85.1274 47.4556C84.7374 47.2956 84.3974 47.0506 84.1074 46.7206C83.8274 46.3906 83.6874 45.9556 83.6874 45.4156C83.6874 44.9756 83.8174 44.5756 84.0774 44.2156C84.3374 43.8456 84.7074 43.5556 85.1874 43.3456C85.6774 43.1356 86.2374 43.0306 86.8674 43.0306C87.8074 43.0306 88.5624 43.2706 89.1324 43.7506C89.7124 44.2206 90.0224 44.8656 90.0624 45.6856H88.3524C88.3224 45.3156 88.1724 45.0206 87.9024 44.8006C87.6324 44.5806 87.2674 44.4706 86.8074 44.4706C86.3574 44.4706 86.0124 44.5556 85.7724 44.7256C85.5324 44.8956 85.4124 45.1206 85.4124 45.4006C85.4124 45.6206 85.4924 45.8056 85.6524 45.9556C85.8124 46.1056 86.0074 46.2256 86.2374 46.3156C86.4674 46.3956 86.8074 46.5006 87.2574 46.6306C87.8574 46.7906 88.3474 46.9556 88.7274 47.1256C89.1174 47.2856 89.4524 47.5256 89.7324 47.8456C90.0124 48.1656 90.1574 48.5906 90.1674 49.1206C90.1674 49.5906 90.0374 50.0106 89.7774 50.3806C89.5174 50.7506 89.1474 51.0406 88.6674 51.2506C88.1974 51.4606 87.6424 51.5656 87.0024 51.5656Z" fill="white"/>
</svg>
