<svg width="78" height="57" viewBox="0 0 78 57" fill="none" xmlns="http://www.w3.org/2000/svg">
<path d="M12.9297 39.7612V50.1862H11.2197V43.0462L8.03971 50.1862H6.85471L3.65971 43.0462V50.1862H1.94971V39.7612H3.79471L7.45471 47.9362L11.0997 39.7612H12.9297ZM22.7522 45.8512C22.7522 46.1612 22.7322 46.4412 22.6922 46.6912H16.3772C16.4272 47.3512 16.6722 47.8812 17.1122 48.2812C17.5522 48.6812 18.0922 48.8812 18.7322 48.8812C19.6522 48.8812 20.3022 48.4962 20.6822 47.7262H22.5272C22.2772 48.4862 21.8222 49.1112 21.1622 49.6012C20.5122 50.0812 19.7022 50.3212 18.7322 50.3212C17.9422 50.3212 17.2322 50.1462 16.6022 49.7962C15.9822 49.4362 15.4922 48.9362 15.1322 48.2962C14.7822 47.6462 14.6072 46.8962 14.6072 46.0462C14.6072 45.1962 14.7772 44.4512 15.1172 43.8112C15.4672 43.1612 15.9522 42.6612 16.5722 42.3112C17.2022 41.9612 17.9222 41.7862 18.7322 41.7862C19.5122 41.7862 20.2072 41.9562 20.8172 42.2962C21.4272 42.6362 21.9022 43.1162 22.2422 43.7362C22.5822 44.3462 22.7522 45.0512 22.7522 45.8512ZM20.9672 45.3112C20.9572 44.6812 20.7322 44.1762 20.2922 43.7962C19.8522 43.4162 19.3072 43.2262 18.6572 43.2262C18.0672 43.2262 17.5622 43.4162 17.1422 43.7962C16.7222 44.1662 16.4722 44.6712 16.3922 45.3112H20.9672ZM27.4351 50.3212C26.7851 50.3212 26.2001 50.2062 25.6801 49.9762C25.1701 49.7362 24.7651 49.4162 24.4651 49.0162C24.1651 48.6062 24.0051 48.1512 23.9851 47.6512H25.7551C25.7851 48.0012 25.9501 48.2962 26.2501 48.5362C26.5601 48.7662 26.9451 48.8812 27.4051 48.8812C27.8851 48.8812 28.2551 48.7912 28.5151 48.6112C28.7851 48.4212 28.9201 48.1812 28.9201 47.8912C28.9201 47.5812 28.7701 47.3512 28.4701 47.2012C28.1801 47.0512 27.7151 46.8862 27.0751 46.7062C26.4551 46.5362 25.9501 46.3712 25.5601 46.2112C25.1701 46.0512 24.8301 45.8062 24.5401 45.4762C24.2601 45.1462 24.1201 44.7112 24.1201 44.1712C24.1201 43.7312 24.2501 43.3312 24.5101 42.9712C24.7701 42.6012 25.1401 42.3112 25.6201 42.1012C26.1101 41.8912 26.6701 41.7862 27.3001 41.7862C28.2401 41.7862 28.9951 42.0262 29.5651 42.5062C30.1451 42.9762 30.4551 43.6212 30.4951 44.4412H28.7851C28.7551 44.0712 28.6051 43.7762 28.3351 43.5562C28.0651 43.3362 27.7001 43.2262 27.2401 43.2262C26.7901 43.2262 26.4451 43.3112 26.2051 43.4812C25.9651 43.6512 25.8451 43.8762 25.8451 44.1562C25.8451 44.3762 25.9251 44.5612 26.0851 44.7112C26.2451 44.8612 26.4401 44.9812 26.6701 45.0712C26.9001 45.1512 27.2401 45.2562 27.6901 45.3862C28.2901 45.5462 28.7801 45.7112 29.1601 45.8812C29.5501 46.0412 29.8851 46.2812 30.1651 46.6012C30.4451 46.9212 30.5901 47.3462 30.6001 47.8762C30.6001 48.3462 30.4701 48.7662 30.2101 49.1362C29.9501 49.5062 29.5801 49.7962 29.1001 50.0062C28.6301 50.2162 28.0751 50.3212 27.4351 50.3212ZM35.4478 50.3212C34.7978 50.3212 34.2128 50.2062 33.6928 49.9762C33.1828 49.7362 32.7778 49.4162 32.4778 49.0162C32.1778 48.6062 32.0178 48.1512 31.9978 47.6512H33.7678C33.7978 48.0012 33.9628 48.2962 34.2628 48.5362C34.5728 48.7662 34.9578 48.8812 35.4178 48.8812C35.8978 48.8812 36.2678 48.7912 36.5278 48.6112C36.7978 48.4212 36.9328 48.1812 36.9328 47.8912C36.9328 47.5812 36.7828 47.3512 36.4828 47.2012C36.1928 47.0512 35.7278 46.8862 35.0878 46.7062C34.4678 46.5362 33.9628 46.3712 33.5728 46.2112C33.1828 46.0512 32.8428 45.8062 32.5528 45.4762C32.2728 45.1462 32.1328 44.7112 32.1328 44.1712C32.1328 43.7312 32.2628 43.3312 32.5228 42.9712C32.7828 42.6012 33.1528 42.3112 33.6328 42.1012C34.1228 41.8912 34.6828 41.7862 35.3128 41.7862C36.2528 41.7862 37.0078 42.0262 37.5778 42.5062C38.1578 42.9762 38.4678 43.6212 38.5078 44.4412H36.7978C36.7678 44.0712 36.6178 43.7762 36.3478 43.5562C36.0778 43.3362 35.7128 43.2262 35.2528 43.2262C34.8028 43.2262 34.4578 43.3112 34.2178 43.4812C33.9778 43.6512 33.8578 43.8762 33.8578 44.1562C33.8578 44.3762 33.9378 44.5612 34.0978 44.7112C34.2578 44.8612 34.4528 44.9812 34.6828 45.0712C34.9128 45.1512 35.2528 45.2562 35.7028 45.3862C36.3028 45.5462 36.7928 45.7112 37.1728 45.8812C37.5628 46.0412 37.8978 46.2812 38.1778 46.6012C38.4578 46.9212 38.6028 47.3462 38.6128 47.8762C38.6128 48.3462 38.4828 48.7662 38.2228 49.1362C37.9628 49.5062 37.5928 49.7962 37.1128 50.0062C36.6428 50.2162 36.0878 50.3212 35.4478 50.3212ZM39.8904 46.0162C39.8904 45.1862 40.0604 44.4512 40.4004 43.8112C40.7504 43.1712 41.2204 42.6762 41.8104 42.3262C42.4104 41.9662 43.0704 41.7862 43.7904 41.7862C44.4404 41.7862 45.0054 41.9162 45.4854 42.1762C45.9754 42.4262 46.3654 42.7412 46.6554 43.1212V41.9212H48.3804V50.1862H46.6554V48.9562C46.3654 49.3462 45.9704 49.6712 45.4704 49.9312C44.9704 50.1912 44.4004 50.3212 43.7604 50.3212C43.0504 50.3212 42.4004 50.1412 41.8104 49.7812C41.2204 49.4112 40.7504 48.9012 40.4004 48.2512C40.0604 47.5912 39.8904 46.8462 39.8904 46.0162ZM46.6554 46.0462C46.6554 45.4762 46.5354 44.9812 46.2954 44.5612C46.0654 44.1412 45.7604 43.8212 45.3804 43.6012C45.0004 43.3812 44.5904 43.2712 44.1504 43.2712C43.7104 43.2712 43.3004 43.3812 42.9204 43.6012C42.5404 43.8112 42.2304 44.1262 41.9904 44.5462C41.7604 44.9562 41.6454 45.4462 41.6454 46.0162C41.6454 46.5862 41.7604 47.0862 41.9904 47.5162C42.2304 47.9462 42.5404 48.2762 42.9204 48.5062C43.3104 48.7262 43.7204 48.8362 44.1504 48.8362C44.5904 48.8362 45.0004 48.7262 45.3804 48.5062C45.7604 48.2862 46.0654 47.9662 46.2954 47.5462C46.5354 47.1162 46.6554 46.6162 46.6554 46.0462ZM53.9565 41.7862C54.5965 41.7862 55.1615 41.9162 55.6515 42.1762C56.1515 42.4262 56.5415 42.7412 56.8215 43.1212V41.9212H58.5465V50.3212C58.5465 51.0812 58.3865 51.7562 58.0665 52.3462C57.7465 52.9462 57.2815 53.4162 56.6715 53.7562C56.0715 54.0962 55.3515 54.2662 54.5115 54.2662C53.3915 54.2662 52.4615 54.0012 51.7215 53.4712C50.9815 52.9512 50.5615 52.2412 50.4615 51.3412H52.1565C52.2865 51.7712 52.5615 52.1162 52.9815 52.3762C53.4115 52.6462 53.9215 52.7812 54.5115 52.7812C55.2015 52.7812 55.7565 52.5712 56.1765 52.1512C56.6065 51.7312 56.8215 51.1212 56.8215 50.3212V48.9412C56.5315 49.3312 56.1365 49.6612 55.6365 49.9312C55.1465 50.1912 54.5865 50.3212 53.9565 50.3212C53.2365 50.3212 52.5765 50.1412 51.9765 49.7812C51.3865 49.4112 50.9165 48.9012 50.5665 48.2512C50.2265 47.5912 50.0565 46.8462 50.0565 46.0162C50.0565 45.1862 50.2265 44.4512 50.5665 43.8112C50.9165 43.1712 51.3865 42.6762 51.9765 42.3262C52.5765 41.9662 53.2365 41.7862 53.9565 41.7862ZM56.8215 46.0462C56.8215 45.4762 56.7015 44.9812 56.4615 44.5612C56.2315 44.1412 55.9265 43.8212 55.5465 43.6012C55.1665 43.3812 54.7565 43.2712 54.3165 43.2712C53.8765 43.2712 53.4665 43.3812 53.0865 43.6012C52.7065 43.8112 52.3965 44.1262 52.1565 44.5462C51.9265 44.9562 51.8115 45.4462 51.8115 46.0162C51.8115 46.5862 51.9265 47.0862 52.1565 47.5162C52.3965 47.9462 52.7065 48.2762 53.0865 48.5062C53.4765 48.7262 53.8865 48.8362 54.3165 48.8362C54.7565 48.8362 55.1665 48.7262 55.5465 48.5062C55.9265 48.2862 56.2315 47.9662 56.4615 47.5462C56.7015 47.1162 56.8215 46.6162 56.8215 46.0462ZM68.3675 45.8512C68.3675 46.1612 68.3475 46.4412 68.3075 46.6912H61.9925C62.0425 47.3512 62.2875 47.8812 62.7275 48.2812C63.1675 48.6812 63.7075 48.8812 64.3475 48.8812C65.2675 48.8812 65.9175 48.4962 66.2975 47.7262H68.1425C67.8925 48.4862 67.4375 49.1112 66.7775 49.6012C66.1275 50.0812 65.3175 50.3212 64.3475 50.3212C63.5575 50.3212 62.8475 50.1462 62.2175 49.7962C61.5975 49.4362 61.1075 48.9362 60.7475 48.2962C60.3975 47.6462 60.2225 46.8962 60.2225 46.0462C60.2225 45.1962 60.3925 44.4512 60.7325 43.8112C61.0825 43.1612 61.5675 42.6612 62.1875 42.3112C62.8175 41.9612 63.5375 41.7862 64.3475 41.7862C65.1275 41.7862 65.8225 41.9562 66.4325 42.2962C67.0425 42.6362 67.5175 43.1162 67.8575 43.7362C68.1975 44.3462 68.3675 45.0512 68.3675 45.8512ZM66.5825 45.3112C66.5725 44.6812 66.3475 44.1762 65.9075 43.7962C65.4675 43.4162 64.9225 43.2262 64.2725 43.2262C63.6825 43.2262 63.1775 43.4162 62.7575 43.7962C62.3375 44.1662 62.0875 44.6712 62.0075 45.3112H66.5825ZM73.0503 50.3212C72.4003 50.3212 71.8153 50.2062 71.2953 49.9762C70.7853 49.7362 70.3803 49.4162 70.0803 49.0162C69.7803 48.6062 69.6203 48.1512 69.6003 47.6512H71.3703C71.4003 48.0012 71.5653 48.2962 71.8653 48.5362C72.1753 48.7662 72.5603 48.8812 73.0203 48.8812C73.5003 48.8812 73.8703 48.7912 74.1303 48.6112C74.4003 48.4212 74.5353 48.1812 74.5353 47.8912C74.5353 47.5812 74.3853 47.3512 74.0853 47.2012C73.7953 47.0512 73.3303 46.8862 72.6903 46.7062C72.0703 46.5362 71.5653 46.3712 71.1753 46.2112C70.7853 46.0512 70.4453 45.8062 70.1553 45.4762C69.8753 45.1462 69.7353 44.7112 69.7353 44.1712C69.7353 43.7312 69.8653 43.3312 70.1253 42.9712C70.3853 42.6012 70.7553 42.3112 71.2353 42.1012C71.7253 41.8912 72.2853 41.7862 72.9153 41.7862C73.8553 41.7862 74.6103 42.0262 75.1803 42.5062C75.7603 42.9762 76.0703 43.6212 76.1103 44.4412H74.4003C74.3703 44.0712 74.2203 43.7762 73.9503 43.5562C73.6803 43.3362 73.3153 43.2262 72.8553 43.2262C72.4053 43.2262 72.0603 43.3112 71.8203 43.4812C71.5803 43.6512 71.4603 43.8762 71.4603 44.1562C71.4603 44.3762 71.5403 44.5612 71.7003 44.7112C71.8603 44.8612 72.0553 44.9812 72.2853 45.0712C72.5153 45.1512 72.8553 45.2562 73.3053 45.3862C73.9053 45.5462 74.3953 45.7112 74.7753 45.8812C75.1653 46.0412 75.5003 46.2812 75.7803 46.6012C76.0603 46.9212 76.2053 47.3462 76.2153 47.8762C76.2153 48.3462 76.0853 48.7662 75.8253 49.1362C75.5653 49.5062 75.1953 49.7962 74.7153 50.0062C74.2453 50.2162 73.6903 50.3212 73.0503 50.3212Z" fill="white"/>
<path d="M47.6445 13.9748C47.6445 14.5053 47.4338 15.014 47.0587 15.389C46.6837 15.7641 46.175 15.9748 45.6445 15.9748H33.6445L29.6445 19.9748V3.97482C29.6445 3.44439 29.8552 2.93568 30.2303 2.56061C30.6054 2.18554 31.1141 1.97482 31.6445 1.97482H45.6445C46.175 1.97482 46.6837 2.18554 47.0587 2.56061C47.4338 2.93568 47.6445 3.44439 47.6445 3.97482V13.9748Z" stroke="white" stroke-width="2" stroke-linecap="round" stroke-linejoin="round"/>
</svg>
