<svg width="33" height="33" viewBox="0 0 33 33" fill="none" xmlns="http://www.w3.org/2000/svg">
<path d="M10.682 25.046V26.7939C10.682 27.4825 10.8382 28.1643 11.1418 28.8005C11.4454 29.4366 11.8904 30.0146 12.4513 30.5015C13.0124 30.9885 13.6783 31.3748 14.4111 31.6382C15.144 31.9017 15.9296 32.0374 16.7229 32.0374C17.5163 32.0374 18.3019 31.9017 19.0348 31.6382C19.7676 31.3748 20.4335 30.9885 20.9945 30.5015C21.5555 30.0146 22.0005 29.4366 22.304 28.8005C22.6077 28.1643 22.7639 27.4825 22.7639 26.7939V25.046" fill="white"/>
<path d="M32.8324 25.0457C32.8324 25.0457 28.8051 16.3066 28.8051 11.0631C28.8051 5.35113 23.3038 0.57605 16.7231 0.57605C10.1425 0.57605 4.6412 5.35113 4.6412 11.0631C4.6412 18.0544 0.613892 25.0457 0.613892 25.0457H32.8324Z" fill="white"/>
</svg>
