<svg width="28" height="28" viewBox="0 0 28 28" fill="none" xmlns="http://www.w3.org/2000/svg">
<path d="M16.6702 3.2018L15.1776 3.35105V3.35106L16.6702 3.2018ZM16.3238 1.81529L15.2306 2.84235L15.2306 2.84235L16.3238 1.81529ZM17.3408 5.62487L18.075 4.31686L18.075 4.31686L17.3408 5.62487ZM17.5598 5.71559L17.1541 7.15968L17.1541 7.15968L17.5598 5.71559ZM19.7473 4.47641L18.7975 3.31548L18.7975 3.31548L19.7473 4.47641ZM20.9726 3.74092L21.0194 5.24019H21.0194L20.9726 3.74092ZM21.1343 3.74899L21.3301 2.26181L21.3301 2.26181L21.1343 3.74899ZM22.2804 4.60275L21.2197 5.66341L21.2197 5.66341L22.2804 4.60275ZM23.3972 5.71958L22.3365 6.78024V6.78025L23.3972 5.71958ZM24.251 6.86564L25.7381 6.66993L25.7381 6.6699L24.251 6.86564ZM24.259 7.02731L25.7583 7.07409L25.7583 7.07405L24.259 7.02731ZM23.5235 8.25263L22.3626 7.30277L23.5235 8.25263ZM22.2843 10.4402L20.8403 10.8459L20.8403 10.846L22.2843 10.4402ZM22.375 10.6592L23.6831 9.92498L23.6831 9.92498L22.375 10.6592ZM24.7982 11.3298L24.6489 12.8224L24.7982 11.3298ZM26.1847 11.6762L25.1576 12.7694L25.1577 12.7694L26.1847 11.6762ZM26.2933 11.7962L25.1033 12.7094L25.1033 12.7094L26.2933 11.7962ZM26.2934 16.2037L25.1033 15.2907L25.1033 15.2907L26.2934 16.2037ZM26.1846 16.3239L27.2116 17.4172L27.2116 17.4172L26.1846 16.3239ZM24.7983 16.6702L24.9475 18.1627H24.9475L24.7983 16.6702ZM22.3756 17.3405L21.0678 16.606V16.606L22.3756 17.3405ZM22.2847 17.56L23.7289 17.9654L23.7289 17.9653L22.2847 17.56ZM23.5237 19.747L24.7718 18.9149L24.7311 18.8539L24.6847 18.7971L23.5237 19.747ZM23.5237 19.747L22.2757 20.5791L22.3164 20.6401L22.3628 20.6969L23.5237 19.747ZM24.2591 20.972L25.7584 20.9249L25.7584 20.9249L24.2591 20.972ZM24.251 21.134L25.7381 21.33L25.7381 21.33L24.251 21.134ZM21.1344 24.2505L21.3301 25.7376L21.3301 25.7376L21.1344 24.2505ZM20.9727 24.2585L20.9259 25.7578H20.9259L20.9727 24.2585ZM19.7474 23.523L18.7975 24.684L18.7975 24.684L19.7474 23.523ZM17.5599 22.2839L17.1541 20.8398L17.1541 20.8398L17.5599 22.2839ZM17.3408 22.3746L18.0751 23.6826L18.0751 23.6826L17.3408 22.3746ZM16.6702 24.7979L15.1777 24.6486L16.6702 24.7979ZM16.3237 26.1848L15.2307 25.1576L15.2306 25.1576L16.3237 26.1848ZM16.2039 26.2932L15.2906 25.1034L15.2906 25.1034L16.2039 26.2932ZM11.7962 26.2933L12.7094 25.1033L12.7094 25.1033L11.7962 26.2933ZM11.6762 26.1847L12.7694 25.1576L12.7694 25.1576L11.6762 26.1847ZM11.3298 24.7982L9.83726 24.9474L11.3298 24.7982ZM10.6592 22.3751L9.92497 23.6831L9.92499 23.6831L10.6592 22.3751ZM10.4402 22.2844L10.0345 23.7284L10.0345 23.7284L10.4402 22.2844ZM8.25259 23.5236L9.20245 24.6845H9.20245L8.25259 23.5236ZM7.02723 24.2591L6.98049 22.7598H6.98048L7.02723 24.2591ZM6.8656 24.251L6.6699 25.7382H6.6699L6.8656 24.251ZM5.71951 23.3972L6.78017 22.3366H6.78017L5.71951 23.3972ZM4.60271 22.2804L3.54205 23.3411H3.54205L4.60271 22.2804ZM3.74893 21.1344L5.2361 20.9387L5.2361 20.9386L3.74893 21.1344ZM3.74086 20.9727L2.24159 20.9259L2.24159 20.9259L3.74086 20.9727ZM4.47638 19.7474L3.31544 18.7975H3.31544L4.47638 19.7474ZM5.71558 17.5598L7.15966 17.1541L7.15966 17.1541L5.71558 17.5598ZM5.62486 17.3408L6.93288 16.6066L6.93288 16.6065L5.62486 17.3408ZM3.20179 16.6702L3.05253 18.1627H3.05253L3.20179 16.6702ZM1.81529 16.3238L2.84235 15.2306L2.84235 15.2306L1.81529 16.3238ZM1.70667 16.2038L2.89667 15.2906L1.70667 16.2038ZM1.70674 11.7961L2.89663 12.7094L2.89663 12.7094L1.70674 11.7961ZM1.8152 11.6763L2.8424 12.7694L2.8424 12.7694L1.8152 11.6763ZM3.20194 11.3298L3.05269 9.83725H3.05269L3.20194 11.3298ZM5.62542 10.659L6.93357 11.393L6.93357 11.393L5.62542 10.659ZM5.716 10.4403L4.27199 10.0343L4.27198 10.0344L5.716 10.4403ZM4.4766 8.25227L5.63753 7.30242L4.4766 8.25227ZM3.74092 7.02656L5.24019 6.98005V6.98005L3.74092 7.02656ZM3.74896 6.86525L2.26175 6.66979L2.26175 6.66979L3.74896 6.86525ZM4.60292 5.71886L3.54226 4.6582V4.6582L4.60292 5.71886ZM5.71957 4.60221L6.78023 5.66287H6.78023L5.71957 4.60221ZM6.86565 3.74842L6.66995 2.26124L6.66995 2.26124L6.86565 3.74842ZM7.02729 3.74035L6.98054 5.23963H6.98054L7.02729 3.74035ZM8.25275 4.47595L9.2026 3.31502L9.2026 3.31502L8.25275 4.47595ZM10.4401 5.71515L10.0346 4.27098L10.0346 4.27098L10.4401 5.71515ZM10.6594 5.62429L11.3939 6.93217L11.3939 6.93216L10.6594 5.62429ZM11.3298 3.20163L12.8224 3.35089L12.8298 3.27645V3.20163H11.3298ZM11.3298 3.20162L9.83728 3.05236L9.82984 3.12681V3.20162H11.3298ZM11.6761 1.81539L12.7694 2.84231L12.7695 2.8423L11.6761 1.81539ZM11.7963 1.70659L12.7093 2.89671L12.7093 2.89671L11.7963 1.70659ZM16.2038 1.70667L15.2906 2.89667L15.2906 2.89667L16.2038 1.70667ZM18.1627 3.05254C18.1283 2.70807 18.092 2.32228 18.0214 1.99762C17.9434 1.63922 17.792 1.18737 17.4171 0.788232L15.2306 2.84235C15.0881 2.69063 15.0719 2.55233 15.09 2.63548C15.0998 2.68035 15.1123 2.75466 15.1278 2.88151C15.1433 3.0081 15.1582 3.15642 15.1776 3.35105L18.1627 3.05254ZM18.075 4.31686C18.4136 4.50694 18.4154 4.79457 18.3494 4.51517C18.2849 4.24229 18.2395 3.8201 18.1627 3.05254L15.1776 3.35106C15.2454 4.02907 15.3084 4.69105 15.4297 5.20464C15.5494 5.7117 15.8142 6.48808 16.6065 6.93287L18.075 4.31686ZM17.9655 4.2715C18.0037 4.28222 18.0404 4.29745 18.075 4.31686L16.6065 6.93287C16.7794 7.02992 16.9632 7.10606 17.1541 7.15968L17.9655 4.2715ZM18.7975 3.31548C18.2005 3.80394 17.8698 4.07034 17.6313 4.21773C17.3871 4.36864 17.5917 4.16647 17.9655 4.2715L17.1541 7.15968C18.0289 7.40545 18.7651 7.04367 19.2083 6.76979C19.6572 6.49239 20.1698 6.06883 20.6972 5.63735L18.7975 3.31548ZM20.9258 2.24165C20.3785 2.25874 19.9519 2.47121 19.6434 2.66949C19.3638 2.8491 19.0654 3.09626 18.7975 3.31548L20.6972 5.63735C20.8486 5.51349 20.964 5.41915 21.0644 5.34058C21.1651 5.26184 21.2265 5.21816 21.2651 5.19334C21.3367 5.14734 21.2275 5.2337 21.0194 5.24019L20.9258 2.24165ZM21.3301 2.26181C21.1961 2.24418 21.0609 2.23744 20.9258 2.24165L21.0194 5.24019C20.9924 5.24103 20.9654 5.23969 20.9386 5.23616L21.3301 2.26181ZM23.341 3.54209C23.0962 3.2973 22.8239 3.02167 22.5636 2.81514C22.2763 2.58714 21.873 2.33328 21.3301 2.26181L20.9386 5.23616C20.7322 5.20899 20.6321 5.11219 20.6988 5.16509C20.7347 5.19363 20.7915 5.24321 20.8838 5.33157C20.9759 5.41974 21.0814 5.5251 21.2197 5.66341L23.341 3.54209ZM24.4579 4.65892L23.341 3.54209L21.2197 5.66341L22.3365 6.78024L24.4579 4.65892ZM25.7381 6.6699C25.6667 6.12693 25.4128 5.72365 25.1848 5.43633C24.9783 5.17607 24.7027 4.90372 24.4579 4.65892L22.3365 6.78025C22.4748 6.91856 22.5802 7.02402 22.6684 7.11615C22.7567 7.20847 22.8063 7.26523 22.8349 7.30119C22.8878 7.36785 22.791 7.26777 22.7638 7.06137L25.7381 6.6699ZM25.7583 7.07405C25.7625 6.93902 25.7558 6.80387 25.7381 6.66993L22.7638 7.06134C22.7603 7.03457 22.7589 7.00756 22.7598 6.98057L25.7583 7.07405ZM24.6845 9.20248C24.9037 8.93454 25.1509 8.63612 25.3305 8.3566C25.5288 8.04802 25.7412 7.62148 25.7583 7.07409L22.7598 6.98053C22.7663 6.77245 22.8526 6.66323 22.8066 6.73482C22.7818 6.77345 22.7381 6.83486 22.6594 6.93551C22.5808 7.03596 22.4865 7.15138 22.3626 7.30277L24.6845 9.20248ZM23.7284 10.0345C23.8335 10.4083 23.6313 10.6129 23.7822 10.3687C23.9296 10.1302 24.196 9.79951 24.6845 9.20248L22.3626 7.30277C21.9311 7.83015 21.5075 8.34278 21.2301 8.7917C20.9562 9.23492 20.5945 9.97112 20.8403 10.8459L23.7284 10.0345ZM23.6831 9.92498C23.7025 9.95956 23.7177 9.99631 23.7284 10.0345L20.8403 10.846C20.8939 11.0368 20.97 11.2206 21.067 11.3934L23.6831 9.92498ZM24.9474 9.83726C24.1799 9.7605 23.7577 9.71506 23.4848 9.65062C23.2054 9.58463 23.493 9.58635 23.6831 9.92498L21.067 11.3934C21.5118 12.1858 22.2882 12.4506 22.7953 12.5703C23.3089 12.6916 23.9709 12.7546 24.6489 12.8224L24.9474 9.83726ZM27.2118 10.583C26.8127 10.208 26.3608 10.0566 26.0024 9.97861C25.6777 9.90796 25.2919 9.87171 24.9474 9.83726L24.6489 12.8224C24.8436 12.8418 24.9919 12.8567 25.1185 12.8722C25.2453 12.8877 25.3196 12.9002 25.3645 12.91C25.4477 12.9281 25.3094 12.9119 25.1576 12.7694L27.2118 10.583ZM27.4833 10.883C27.4011 10.7758 27.3103 10.6755 27.2118 10.583L25.1577 12.7694C25.1379 12.7509 25.1198 12.7308 25.1033 12.7094L27.4833 10.883ZM28 13.2103C28 12.8641 28.0023 12.4766 27.9643 12.1465C27.9224 11.7821 27.8167 11.3175 27.4833 10.883L25.1033 12.7094C24.9766 12.5442 24.9743 12.405 24.984 12.4896C24.9893 12.5352 24.9943 12.6104 24.9971 12.7381C24.9999 12.8656 25 13.0147 25 13.2103H28ZM28 14.7899V13.2103H25V14.7899H28ZM27.4835 17.1168C27.8168 16.6823 27.9224 16.2177 27.9643 15.8534C28.0023 15.5234 28 15.136 28 14.7899H25C25 14.9854 24.9999 15.1345 24.9971 15.2619C24.9943 15.3897 24.9893 15.4649 24.984 15.5105C24.9743 15.595 24.9766 15.4558 25.1033 15.2907L27.4835 17.1168ZM27.2116 17.4172C27.3102 17.3246 27.4011 17.2241 27.4835 17.1168L25.1033 15.2907C25.1198 15.2692 25.138 15.2491 25.1577 15.2306L27.2116 17.4172ZM24.9475 18.1627C25.292 18.1283 25.6777 18.092 26.0023 18.0214C26.3607 17.9434 26.8125 17.7921 27.2116 17.4172L25.1577 15.2306C25.3094 15.0881 25.4477 15.0719 25.3645 15.09C25.3197 15.0998 25.2453 15.1123 25.1185 15.1278C24.9919 15.1433 24.8436 15.1582 24.649 15.1776L24.9475 18.1627ZM23.6835 18.0751C23.4934 18.4136 23.2058 18.4153 23.4852 18.3493C23.758 18.2849 24.1802 18.2395 24.9475 18.1627L24.649 15.1776C23.9712 15.2454 23.3093 15.3084 22.7958 15.4296C22.2889 15.5493 21.5127 15.8139 21.0678 16.606L23.6835 18.0751ZM23.7289 17.9653C23.7182 18.0036 23.7029 18.0404 23.6835 18.0751L21.0678 16.606C20.9705 16.7792 20.8942 16.9634 20.8406 17.1546L23.7289 17.9653ZM24.6847 18.7971C24.1963 18.2003 23.93 17.8697 23.7826 17.6312C23.6317 17.3871 23.8338 17.5916 23.7289 17.9654L20.8406 17.1546C20.5951 18.0293 20.9568 18.7652 21.2306 19.2083C21.508 19.6571 21.9314 20.1696 22.3628 20.6968L24.6847 18.7971ZM24.7718 18.915L24.7718 18.9149L22.2757 20.579L22.2757 20.5791L24.7718 18.915ZM25.7584 20.9249C25.7412 20.3777 25.5287 19.9513 25.3305 19.6428C25.1509 19.3633 24.9038 19.065 24.6847 18.7971L22.3628 20.6969C22.4866 20.8482 22.5809 20.9636 22.6595 21.064C22.7382 21.1646 22.7819 21.226 22.8067 21.2646C22.8527 21.3362 22.7664 21.227 22.7598 21.019L25.7584 20.9249ZM25.7381 21.33C25.7558 21.1957 25.7626 21.0603 25.7584 20.9249L22.7598 21.019C22.759 20.9919 22.7603 20.9648 22.7639 20.938L25.7381 21.33ZM24.4581 23.3404C24.7028 23.0956 24.9784 22.8234 25.1848 22.5632C25.4128 22.2759 25.6666 21.8728 25.7381 21.33L22.7639 20.938C22.7911 20.7316 22.8878 20.6316 22.8349 20.6982C22.8064 20.7342 22.7568 20.7909 22.6685 20.8832C22.5803 20.9753 22.475 21.0808 22.3367 21.2191L24.4581 23.3404ZM23.3411 24.4574L24.4581 23.3404L22.3367 21.2191L21.2198 22.336L23.3411 24.4574ZM21.3301 25.7376C21.8731 25.6662 22.2764 25.4123 22.5637 25.1843C22.8239 24.9778 23.0963 24.7022 23.3411 24.4574L21.2198 22.336C21.0815 22.4743 20.976 22.5797 20.8839 22.6679C20.7915 22.7562 20.7348 22.8058 20.6988 22.8344C20.6322 22.8873 20.7322 22.7905 20.9386 22.7633L21.3301 25.7376ZM20.9259 25.7578C21.061 25.762 21.1961 25.7553 21.3301 25.7376L20.9387 22.7633C20.9654 22.7598 20.9925 22.7584 21.0195 22.7593L20.9259 25.7578ZM18.7975 24.684C19.0655 24.9032 19.3639 25.1503 19.6434 25.33C19.952 25.5282 20.3785 25.7407 20.9259 25.7578L21.0195 22.7593C21.2276 22.7657 21.3368 22.8521 21.2652 22.8061C21.2266 22.7813 21.1652 22.7376 21.0645 22.6589C20.9641 22.5803 20.8486 22.486 20.6973 22.3621L18.7975 24.684ZM17.9656 23.7279C17.5917 23.833 17.3871 23.6308 17.6313 23.7817C17.8699 23.9291 18.2005 24.1955 18.7975 24.684L20.6973 22.3621C20.1699 21.9306 19.6573 21.507 19.2083 21.2296C18.7651 20.9558 18.029 20.594 17.1541 20.8398L17.9656 23.7279ZM18.0751 23.6826C18.0405 23.702 18.0037 23.7172 17.9656 23.7279L17.1541 20.8398C16.9633 20.8934 16.7795 20.9695 16.6066 21.0666L18.0751 23.6826ZM18.1628 24.9472C18.2395 24.1795 18.285 23.7573 18.3494 23.4843C18.4154 23.2048 18.4137 23.4925 18.0751 23.6826L16.6066 21.0666C15.8142 21.5114 15.5495 22.2878 15.4297 22.7949C15.3084 23.3085 15.2455 23.9705 15.1777 24.6486L18.1628 24.9472ZM17.4168 27.212C17.792 26.8128 17.9434 26.3609 18.0214 26.0024C18.092 25.6777 18.1283 25.2918 18.1628 24.9472L15.1777 24.6486C15.1582 24.8433 15.1433 24.9917 15.1278 25.1184C15.1123 25.2452 15.0998 25.3196 15.09 25.3645C15.0719 25.4477 15.088 25.3093 15.2307 25.1576L17.4168 27.212ZM17.1173 27.4831C17.2243 27.401 17.3244 27.3103 17.4168 27.212L15.2306 25.1576C15.2491 25.1379 15.2692 25.1198 15.2906 25.1034L17.1173 27.4831ZM14.7895 28C15.1358 28 15.5234 28.0023 15.8535 27.9643C16.218 27.9224 16.6828 27.8167 17.1173 27.4831L15.2906 25.1034C15.4557 24.9766 15.595 24.9743 15.5104 24.984C15.4648 24.9892 15.3896 24.9943 15.2618 24.9971C15.1343 24.9999 14.9852 25 14.7895 25V28ZM13.2103 28H14.7895V25H13.2103V28ZM10.883 27.4833C11.3175 27.8167 11.7821 27.9224 12.1465 27.9643C12.4766 28.0023 12.8641 28 13.2103 28V25C13.0147 25 12.8656 24.9999 12.7381 24.9971C12.6104 24.9943 12.5352 24.9893 12.4895 24.984C12.405 24.9743 12.5442 24.9766 12.7094 25.1033L10.883 27.4833ZM10.583 27.2118C10.6755 27.3103 10.7758 27.4011 10.883 27.4833L12.7094 25.1033C12.7308 25.1198 12.7509 25.138 12.7694 25.1576L10.583 27.2118ZM9.83726 24.9474C9.87171 25.2919 9.90796 25.6777 9.97861 26.0024C10.0566 26.3608 10.208 26.8127 10.583 27.2118L12.7694 25.1576C12.9119 25.3094 12.9281 25.4477 12.91 25.3645C12.9002 25.3197 12.8877 25.2453 12.8722 25.1185C12.8567 24.9919 12.8418 24.8436 12.8224 24.6489L9.83726 24.9474ZM9.92499 23.6831C9.58635 23.493 9.58463 23.2054 9.65062 23.4848C9.71506 23.7577 9.7605 24.1799 9.83726 24.9474L12.8224 24.6489C12.7546 23.9709 12.6916 23.3089 12.5703 22.7953C12.4506 22.2882 12.1858 21.5118 11.3934 21.067L9.92499 23.6831ZM10.0345 23.7284C9.99631 23.7177 9.95955 23.7025 9.92497 23.6831L11.3934 21.067C11.2206 20.97 11.0368 20.8939 10.846 20.8403L10.0345 23.7284ZM9.20245 24.6845C9.79949 24.196 10.1302 23.9296 10.3687 23.7822C10.6129 23.6313 10.4083 23.8335 10.0345 23.7284L10.846 20.8403C9.97115 20.5945 9.23494 20.9563 8.79171 21.2301C8.34277 21.5075 7.83013 21.9311 7.30274 22.3626L9.20245 24.6845ZM7.07398 25.7584C7.62139 25.7413 8.04795 25.5288 8.35653 25.3305C8.63606 25.1509 8.9345 24.9037 9.20245 24.6845L7.30274 22.3626C7.15135 22.4865 7.03592 22.5808 6.93547 22.6594C6.83481 22.7382 6.77339 22.7818 6.73476 22.8067C6.66317 22.8527 6.7724 22.7663 6.98049 22.7598L7.07398 25.7584ZM6.6699 25.7382C6.80381 25.7558 6.93895 25.7626 7.07399 25.7584L6.98048 22.7598C7.0075 22.759 7.03453 22.7603 7.0613 22.7639L6.6699 25.7382ZM4.65885 24.4579C4.90366 24.7027 5.17602 24.9783 5.43629 25.1849C5.72361 25.4129 6.12691 25.6668 6.6699 25.7382L7.0613 22.7639C7.26771 22.791 7.36779 22.8878 7.30113 22.8349C7.26517 22.8064 7.20841 22.7568 7.11608 22.6684C7.02395 22.5803 6.91848 22.4749 6.78017 22.3366L4.65885 24.4579ZM3.54205 23.3411L4.65885 24.4579L6.78017 22.3366L5.66337 21.2198L3.54205 23.3411ZM2.26175 21.3301C2.33321 21.8731 2.58707 22.2764 2.81508 22.5637C3.02161 22.8239 3.29725 23.0963 3.54205 23.3411L5.66337 21.2198C5.52506 21.0815 5.4197 20.976 5.33152 20.8839C5.24316 20.7915 5.19358 20.7348 5.16504 20.6988C5.11214 20.6322 5.20894 20.7322 5.2361 20.9387L2.26175 21.3301ZM2.24159 20.9259C2.23738 21.061 2.24412 21.1961 2.26175 21.3301L5.2361 20.9386C5.23963 20.9654 5.24098 20.9925 5.24013 21.0195L2.24159 20.9259ZM3.31544 18.7975C3.09621 19.0655 2.84905 19.3639 2.66943 19.6434C2.47115 19.952 2.25867 20.3785 2.24159 20.9259L5.24013 21.0195C5.23364 21.2276 5.14728 21.3368 5.19329 21.2652C5.21811 21.2266 5.26179 21.1651 5.34053 21.0645C5.41911 20.964 5.51345 20.8486 5.63732 20.6972L3.31544 18.7975ZM4.27149 17.9655C4.16645 17.5917 4.36863 17.3871 4.21771 17.6313C4.07032 17.8698 3.80392 18.2005 3.31544 18.7975L5.63732 20.6972C6.06881 20.1698 6.49238 19.6572 6.76978 19.2083C7.04366 18.7651 7.40545 18.0289 7.15966 17.1541L4.27149 17.9655ZM4.31685 18.075C4.29744 18.0404 4.28221 18.0037 4.27149 17.9655L7.15966 17.1541C7.10604 16.9632 7.02991 16.7794 6.93288 16.6066L4.31685 18.075ZM3.05253 18.1627C3.82009 18.2395 4.24228 18.2849 4.51516 18.3494C4.79456 18.4154 4.50693 18.4136 4.31685 18.075L6.93288 16.6065C6.48808 15.8142 5.7117 15.5494 5.20463 15.4297C4.69105 15.3084 4.02906 15.2454 3.35104 15.1776L3.05253 18.1627ZM0.788237 17.4171C1.18738 17.792 1.63922 17.9434 1.99762 18.0214C2.32227 18.092 2.70806 18.1283 3.05253 18.1627L3.35105 15.1776C3.15642 15.1582 3.00809 15.1433 2.88151 15.1278C2.75466 15.1123 2.68035 15.0998 2.63548 15.09C2.55233 15.0719 2.69063 15.0881 2.84235 15.2306L0.788237 17.4171ZM0.516666 17.117C0.598927 17.2242 0.689748 17.3245 0.78824 17.4171L2.84235 15.2306C2.86205 15.2491 2.88022 15.2692 2.89667 15.2906L0.516666 17.117ZM0 14.7897C0 15.1359 -0.00231826 15.5234 0.0356703 15.8535C0.0776073 16.2178 0.183263 16.6825 0.516666 17.117L2.89667 15.2906C3.0234 15.4558 3.02573 15.595 3.016 15.5105C3.01075 15.4648 3.00567 15.3896 3.00287 15.2619C3.00007 15.1344 3 14.9853 3 14.7897H0ZM0 13.2104V14.7897H3V13.2104H0ZM0.516857 10.8828C0.183334 11.3173 0.0776366 11.782 0.0356834 12.1465C-0.0023191 12.4766 0 12.8642 0 13.2104H3C3 13.0148 3.00007 12.8657 3.00287 12.7382C3.00567 12.6104 3.01075 12.5352 3.016 12.4896C3.02573 12.405 3.02341 12.5443 2.89663 12.7094L0.516857 10.8828ZM0.788011 10.5831C0.689688 10.6755 0.599007 10.7757 0.516856 10.8828L2.89663 12.7094C2.8802 12.7308 2.86206 12.7509 2.8424 12.7694L0.788011 10.5831ZM3.05269 9.83725C2.70815 9.8717 2.32228 9.90796 1.99757 9.97862C1.63911 10.0566 1.18718 10.208 0.788008 10.5832L2.8424 12.7694C2.69066 12.9119 2.55234 12.9281 2.6355 12.91C2.68037 12.9002 2.7547 12.8877 2.88157 12.8722C3.00818 12.8567 3.15653 12.8418 3.3512 12.8224L3.05269 9.83725ZM4.31727 9.92501C4.50732 9.5863 4.79504 9.58457 4.5156 9.65057C4.24267 9.71502 3.8204 9.76048 3.05269 9.83725L3.3512 12.8224C4.02935 12.7545 4.69147 12.6916 5.20514 12.5702C5.71231 12.4505 6.48883 12.1856 6.93357 11.393L4.31727 9.92501ZM4.27198 10.0344C4.2827 9.99624 4.2979 9.95954 4.31727 9.92502L6.93357 11.393C7.03043 11.2204 7.10644 11.0369 7.16001 10.8463L4.27198 10.0344ZM3.31566 9.20213C3.80425 9.7993 4.07072 10.1301 4.21815 10.3686C4.3691 10.6129 4.16686 10.4083 4.27199 10.0343L7.16001 10.8463C7.40601 9.97136 7.04417 9.23499 6.77024 8.79168C6.49279 8.34266 6.06913 7.82992 5.63753 7.30242L3.31566 9.20213ZM2.24164 7.07307C2.25862 7.62063 2.47114 8.04731 2.66947 8.35598C2.84912 8.63558 3.09636 8.9341 3.31566 9.20213L5.63753 7.30242C5.51363 7.15098 5.41926 7.03552 5.34066 6.93504C5.2619 6.83435 5.21819 6.77291 5.19337 6.73427C5.14735 6.66265 5.23374 6.77191 5.24019 6.98005L2.24164 7.07307ZM2.26175 6.66979C2.24418 6.80345 2.23746 6.93832 2.24164 7.07307L5.24019 6.98005C5.24103 7.00701 5.23969 7.03398 5.23617 7.06071L2.26175 6.66979ZM3.54226 4.6582C3.29739 4.90307 3.02168 5.17549 2.8151 5.43583C2.58704 5.72323 2.33314 6.12665 2.26175 6.66979L5.23617 7.06071C5.20904 7.26717 5.11221 7.36729 5.16511 7.30062C5.19366 7.26465 5.24325 7.20787 5.33164 7.11552C5.41984 7.02336 5.52523 6.91787 5.66358 6.77952L3.54226 4.6582ZM4.65891 3.54155L3.54226 4.6582L5.66358 6.77952L6.78023 5.66287L4.65891 3.54155ZM6.66995 2.26124C6.12696 2.33269 5.72366 2.58656 5.43634 2.81457C5.17607 3.02111 4.90371 3.29674 4.65891 3.54155L6.78023 5.66287C6.91854 5.52456 7.02401 5.41919 7.11614 5.33101C7.20847 5.24265 7.26523 5.19307 7.30119 5.16453C7.36785 5.11163 7.26776 5.20843 7.06136 5.23559L6.66995 2.26124ZM7.07404 2.24108C6.93902 2.23687 6.80388 2.24361 6.66995 2.26124L7.06136 5.23559C7.03457 5.23912 7.00754 5.24047 6.98054 5.23963L7.07404 2.24108ZM9.2026 3.31502C8.93462 3.09576 8.63616 2.84857 8.35663 2.66895C8.04805 2.47066 7.62148 2.25815 7.07404 2.24108L6.98054 5.23963C6.77243 5.23314 6.6632 5.14676 6.73483 5.19279C6.77347 5.21762 6.8349 5.26132 6.93557 5.34007C7.03604 5.41865 7.15148 5.51301 7.30289 5.63689L9.2026 3.31502ZM10.0346 4.27098C10.4085 4.16603 10.613 4.36819 10.3687 4.21723C10.1302 4.06983 9.79957 3.80344 9.2026 3.31502L7.30289 5.63689C7.83022 6.06834 8.34279 6.49186 8.79164 6.76924C9.23474 7.04307 9.9708 7.40489 10.8455 7.15931L10.0346 4.27098ZM9.92495 4.31641C9.95958 4.29697 9.99639 4.28172 10.0346 4.27098L10.8455 7.15931C11.0367 7.10564 11.2208 7.02939 11.3939 6.93217L9.92495 4.31641ZM9.83728 3.05238C9.76054 3.81978 9.71511 4.24188 9.65069 4.51471C9.58472 4.79407 9.58643 4.50652 9.92495 4.31641L11.3939 6.93216C12.186 6.48731 12.4507 5.71107 12.5704 5.20411C12.6916 4.69062 12.7546 4.02876 12.8224 3.35089L9.83728 3.05238ZM9.82984 3.20162V3.20163H12.8298V3.20162H9.82984ZM10.5827 0.78847C10.2079 1.18758 10.0566 1.63934 9.97859 1.99766C9.90796 2.32226 9.87172 2.70796 9.83728 3.05236L12.8224 3.35088C12.8419 3.15629 12.8568 3.008 12.8722 2.88144C12.8877 2.75462 12.9002 2.68032 12.91 2.63547C12.9281 2.55233 12.9119 2.69059 12.7694 2.84231L10.5827 0.78847ZM10.8833 0.516469C10.7759 0.598849 10.6754 0.689817 10.5827 0.78848L12.7695 2.8423C12.7509 2.86204 12.7308 2.88023 12.7093 2.89671L10.8833 0.516469ZM13.2101 0C12.864 0 12.4766 -0.00231731 12.1466 0.0356567C11.7823 0.0775772 11.3177 0.18319 10.8833 0.51647L12.7093 2.89671C12.5442 3.0234 12.405 3.02572 12.4895 3.01599C12.5351 3.01074 12.6103 3.00567 12.738 3.00287C12.8655 3.00007 13.0146 3 13.2101 3V0ZM14.7897 0H13.2101V3H14.7897V0ZM17.117 0.516668C16.6825 0.183264 16.2178 0.0776078 15.8535 0.0356705C15.5234 -0.00231826 15.1359 0 14.7897 0V3C14.9853 3 15.1344 3.00007 15.2619 3.00287C15.3896 3.00567 15.4648 3.01075 15.5105 3.016C15.595 3.02573 15.4558 3.0234 15.2906 2.89667L17.117 0.516668ZM17.4171 0.788238C17.3245 0.689756 17.2242 0.598934 17.117 0.516667L15.2906 2.89667C15.2692 2.88021 15.2491 2.86205 15.2306 2.84235L17.4171 0.788238ZM17.5 14C17.5 15.933 15.933 17.5 14 17.5V20.5C17.5899 20.5 20.5 17.5899 20.5 14H17.5ZM14 10.5C15.933 10.5 17.5 12.067 17.5 14H20.5C20.5 10.4101 17.5899 7.5 14 7.5V10.5ZM10.5 14C10.5 12.067 12.067 10.5 14 10.5V7.5C10.4101 7.5 7.5 10.4101 7.5 14H10.5ZM14 17.5C12.067 17.5 10.5 15.933 10.5 14H7.5C7.5 17.5899 10.4101 20.5 14 20.5V17.5Z" fill="#CCD2E3"/>
</svg>
