<svg width="25" height="27" viewBox="0 0 25 27" fill="none" xmlns="http://www.w3.org/2000/svg">
<path d="M24.6582 22.8845L19.79 17.8024C19.5703 17.573 19.2725 17.4456 18.96 17.4456H18.1641C19.5117 15.6462 20.3125 13.383 20.3125 10.9209C20.3125 5.06403 15.7666 0.318359 10.1562 0.318359C4.5459 0.318359 0 5.06403 0 10.9209C0 16.7778 4.5459 21.5235 10.1562 21.5235C12.5146 21.5235 14.6826 20.6875 16.4062 19.2806V20.1115C16.4062 20.4378 16.5283 20.7487 16.748 20.9781L21.6162 26.0602C22.0752 26.5393 22.8174 26.5393 23.2715 26.0602L24.6533 24.6176C25.1123 24.1385 25.1123 23.3637 24.6582 22.8845ZM10.1562 17.4456C6.7041 17.4456 3.90625 14.5299 3.90625 10.9209C3.90625 7.31707 6.69922 4.39627 10.1562 4.39627C13.6084 4.39627 16.4062 7.31198 16.4062 10.9209C16.4062 14.5248 13.6133 17.4456 10.1562 17.4456Z" fill="black" fill-opacity="0.28"/>
</svg>
